<svg width="532" height="585" viewBox="0 0 532 585" fill="none" xmlns="http://www.w3.org/2000/svg">
<path d="M202.995 423.351H49.4199V564.087H202.995V423.351Z" fill="#1C2628" stroke="#1C2628" stroke-width="2.13" stroke-linecap="round" stroke-linejoin="round"/>
<path d="M282.625 114.868C312.301 135.073 349.906 138.792 384.423 156.962C419.221 175.063 451.143 207.265 439.286 233.364C427.43 259.182 371.725 278.616 341.697 304.714C312.021 330.532 307.741 362.734 289.921 388.272C268.102 404.057 237.092 425.315 211.906 427.42C183.352 422.088 158.446 392.271 131.014 371.785C103.863 351.018 74.4672 339.863 55.8053 319.377C36.8627 299.172 28.9349 269.355 17.9202 233.925C6.90548 198.285 -6.98571 156.752 4.02902 123.708C15.3244 90.9443 51.245 66.7399 89.6913 51.0246C127.857 35.3093 167.987 28.3637 199.418 43.0267C230.568 57.9001 252.948 94.6626 282.625 114.868Z" fill="#63A31F"/>
<path fill-rule="evenodd" clip-rule="evenodd" d="M173.809 31.6612C174.511 31.1 176.896 30.6089 177.317 29.9073C179.141 26.9607 185.035 20.5062 182.579 15.2444C180.194 9.98258 176.756 11.8768 176.756 11.8768C176.756 11.8768 176.335 0.862105 164.759 8.57943C163.356 9.49148 162.935 7.80769 162.093 9.35116C161.462 10.4737 160.971 11.8067 160.479 12.9994" fill="#1C2628"/>
<path d="M173.809 31.6612C174.511 31.1 176.896 30.6089 177.317 29.9073C179.141 26.9607 185.035 20.5062 182.579 15.2444C180.194 9.98258 176.756 11.8768 176.756 11.8768C176.756 11.8768 176.335 0.862105 164.759 8.57943C163.356 9.49148 162.935 7.80769 162.093 9.35116C161.462 10.4737 160.971 11.8067 160.479 12.9994" stroke="#1C2628" stroke-width="2.13" stroke-linecap="round" stroke-linejoin="round"/>
<path fill-rule="evenodd" clip-rule="evenodd" d="M130.873 34.3271C130.452 35.169 128.488 36.5722 128.417 37.3439C127.926 40.7816 125.33 49.1304 129.75 52.9189C134.1 56.7074 136.415 53.5503 136.415 53.5503C136.415 53.5503 141.326 63.3724 148.693 51.5859C149.535 50.1828 150.657 51.5157 150.798 49.7618C150.938 48.4288 150.798 47.0958 150.727 45.7628" fill="#1C2628"/>
<path d="M130.873 34.3271C130.452 35.169 128.488 36.5722 128.417 37.3439C127.926 40.7816 125.33 49.1304 129.75 52.9189C134.1 56.7074 136.415 53.5503 136.415 53.5503C136.415 53.5503 141.326 63.3724 148.693 51.5859C149.535 50.1828 150.657 51.5157 150.798 49.7618C150.938 48.4288 150.798 47.0958 150.727 45.7628" stroke="#1C2628" stroke-width="2.13" stroke-linecap="round" stroke-linejoin="round"/>
<path fill-rule="evenodd" clip-rule="evenodd" d="M111.931 92.3474C119.367 78.4563 125.12 68.1431 125.12 68.1431L137.468 63.3022L144.484 48.5692L169.881 54.8132L167.215 61.6886L162.725 78.0353C162.725 78.0353 166.513 92.137 161.462 91.8563C160.901 91.8563 159.989 96.0658 158.866 102.941C143.642 101.608 125.471 99.5035 111.931 92.3474Z" fill="#F3A13B" stroke="#1C2628" stroke-width="2.13" stroke-linecap="round" stroke-linejoin="round"/>
<path fill-rule="evenodd" clip-rule="evenodd" d="M178.79 40.8518C180.755 22.9617 175.844 26.0486 174.862 21.1376C172.967 11.3857 170.091 8.08828 152.13 9.2108C148.973 9.42127 145.255 9.56158 142.379 10.9647C129.259 17.5595 129.47 27.9429 129.47 27.9429C129.47 27.9429 122.524 52.077 149.324 54.5326C176.195 56.9179 149.464 54.1116 163.847 50.6037C178.159 47.0959 178.79 40.8518 178.79 40.8518Z" fill="#1C2628" stroke="#1C2628" stroke-width="2.13" stroke-linecap="round" stroke-linejoin="round"/>
<path fill-rule="evenodd" clip-rule="evenodd" d="M148.763 42.1147C147.921 37.9052 155.218 26.7502 156.48 23.0318C158.725 16.3668 147.22 19.103 154.235 17.6297C162.093 16.0161 169.109 15.7354 173.739 22.2601C175.563 24.7857 178.089 37.5544 178.79 40.8518C181.246 52.6383 174.441 60.4959 163.566 62.8111C156.551 64.2844 151.008 63.3022 146.308 58.1807C143.642 55.2341 149.605 46.3241 148.763 42.1147Z" fill="#F3A13B" stroke="#1C2628" stroke-width="2.13" stroke-linecap="round" stroke-linejoin="round"/>
<path fill-rule="evenodd" clip-rule="evenodd" d="M171.424 34.9586C171.845 36.502 170.302 38.1858 167.846 38.7471C165.461 39.3083 163.146 38.5366 162.725 36.9931" fill="#F3A13B"/>
<path d="M171.424 34.9586C171.845 36.502 170.302 38.1858 167.846 38.7471C165.461 39.3083 163.146 38.5366 162.725 36.9931" stroke="#1C2628" stroke-width="2.13" stroke-linecap="round" stroke-linejoin="round"/>
<path fill-rule="evenodd" clip-rule="evenodd" d="M144.904 58.1807L147.851 51.4456C147.851 51.4456 159.497 50.8843 162.514 54.6728C165.531 58.3912 161.391 69.7567 161.391 69.7567L153.183 70.4583" fill="#F3A13B"/>
<path fill-rule="evenodd" clip-rule="evenodd" d="M153.394 38.0455C151.991 36.0811 148.764 37.7649 148.132 39.5188C146.729 43.167 150.167 49.5513 156.271 45.2717" fill="#F3A13B"/>
<path d="M153.394 38.0455C151.991 36.0811 148.764 37.7649 148.132 39.5188C146.729 43.167 150.167 49.5513 156.271 45.2717" stroke="#1C2628" stroke-width="2.13" stroke-linecap="round" stroke-linejoin="round"/>
<path d="M152.833 41.9743C152.833 41.9743 152.131 41.0623 152.271 41.2026" stroke="#1C2628" stroke-width="2.13" stroke-linecap="round" stroke-linejoin="round"/>
<path fill-rule="evenodd" clip-rule="evenodd" d="M167.285 45.412C168.408 47.2361 169.741 48.7094 172.196 49.411C172.196 49.411 168.969 53.9011 164.83 52.1472C162.094 51.0246 167.285 45.412 167.285 45.412Z" fill="#1C2628" stroke="#1C2628" stroke-width="2.13" stroke-linecap="round" stroke-linejoin="round"/>
<path fill-rule="evenodd" clip-rule="evenodd" d="M175.704 38.9576C175.704 38.9576 183.772 43.167 183.842 44.5702C184.333 50.1126 177.528 46.3943 176.827 46.8854" fill="#F3A13B"/>
<path d="M175.704 38.9576C175.704 38.9576 183.772 43.167 183.842 44.5702C184.333 50.1126 177.528 46.3943 176.827 46.8854" stroke="#1C2628" stroke-width="2.13" stroke-linecap="round" stroke-linejoin="round"/>
<path fill-rule="evenodd" clip-rule="evenodd" d="M168.969 13.4202L173.74 22.2601C167.496 13.3501 163.847 37.5544 146.378 36.3617C145.887 36.3617 136.346 38.1157 136.486 37.4843C136.626 36.7125 138.029 36.923 138.661 36.3617C140.064 35.0989 140.555 33.6256 141.046 31.8717C141.607 29.7669 139.994 25.0664 141.958 23.5229C145.115 20.9972 150.026 11.8768 153.464 12.438L168.969 13.4202Z" fill="#1C2628" stroke="#1C2628" stroke-width="2.13" stroke-linecap="round" stroke-linejoin="round"/>
<path fill-rule="evenodd" clip-rule="evenodd" d="M151.079 13.8412C150.307 13.28 149.184 11.1752 148.413 10.9648C145.045 10.0527 137.188 6.2642 132.838 10.1229C128.488 13.9114 131.224 16.6475 131.224 16.6475C131.224 16.6475 120.841 20.1554 131.505 29.1356C132.768 30.1879 131.294 31.1 132.978 31.5209C134.241 31.8015 135.644 31.8717 136.977 32.012" fill="#1C2628"/>
<path d="M151.079 13.8412C150.307 13.28 149.184 11.1752 148.413 10.9648C145.045 10.0527 137.188 6.2642 132.838 10.1229C128.488 13.9114 131.224 16.6475 131.224 16.6475C131.224 16.6475 120.841 20.1554 131.505 29.1356C132.768 30.1879 131.294 31.1 132.978 31.5209C134.241 31.8015 135.644 31.8717 136.977 32.012" stroke="#1C2628" stroke-width="2.13" stroke-linecap="round" stroke-linejoin="round"/>
<path fill-rule="evenodd" clip-rule="evenodd" d="M166.233 19.5239C166.233 18.6119 167.355 16.5072 167.145 15.7354C166.022 12.438 164.76 3.80865 159.147 2.33534C153.534 0.86203 152.833 4.7207 152.833 4.7207C152.833 4.7207 144.063 -1.94427 142.66 11.9469C142.52 13.5605 140.906 12.9291 141.538 14.4726C142.029 15.7354 142.73 16.8579 143.362 18.0506" fill="#1C2628"/>
<path d="M166.233 19.5239C166.233 18.6119 167.355 16.5072 167.145 15.7354C166.022 12.438 164.76 3.80865 159.147 2.33534C153.534 0.86203 152.833 4.7207 152.833 4.7207C152.833 4.7207 144.063 -1.94427 142.66 11.9469C142.52 13.5605 140.906 12.9291 141.538 14.4726C142.029 15.7354 142.73 16.8579 143.362 18.0506" stroke="#1C2628" stroke-width="2.13" stroke-linecap="round" stroke-linejoin="round"/>
<path fill-rule="evenodd" clip-rule="evenodd" d="M141.116 24.435C140.204 24.2947 138.309 22.8214 137.538 22.9617C134.1 23.5229 125.401 23.4528 123.015 28.7848C120.63 34.1167 124.348 35.3796 124.348 35.3796C124.348 35.3796 116.42 42.9566 129.82 46.5346C131.434 46.9555 130.522 48.4289 132.136 48.0781C133.398 47.7974 134.661 47.3063 135.924 46.8854" fill="#1C2628"/>
<path d="M141.116 24.435C140.204 24.2947 138.309 22.8214 137.538 22.9617C134.1 23.5229 125.401 23.4528 123.015 28.7848C120.63 34.1167 124.348 35.3796 124.348 35.3796C124.348 35.3796 116.42 42.9566 129.82 46.5346C131.434 46.9555 130.522 48.4289 132.136 48.0781C133.398 47.7974 134.661 47.3063 135.924 46.8854" stroke="#1C2628" stroke-width="2.13" stroke-linecap="round" stroke-linejoin="round"/>
<path fill-rule="evenodd" clip-rule="evenodd" d="M292.236 144.054L319.176 92.0668C319.176 92.0668 315.177 91.4354 313.494 91.9966C311.81 92.5579 305.917 103.853 305.917 103.853L302.619 93.5401C302.619 93.5401 300.374 92.3474 300.304 98.0302C300.234 103.713 300.164 109.396 300.164 109.396L290.903 121.814C290.903 121.814 288.096 118.937 289.289 116.692C290.482 114.447 292.236 108.203 293.428 105.958C294.621 103.713 292.306 102.52 292.306 102.52L280.099 117.744L276.591 132.197L201.803 145.176L219.342 183.342L292.236 144.054Z" fill="#F3A13B" stroke="#1C2628" stroke-width="2.13" stroke-linecap="round" stroke-linejoin="round"/>
<path d="M304.163 115.78C305.777 112.202 306.127 107.501 306.057 103.573" stroke="#1C2628" stroke-width="2.13" stroke-linecap="round" stroke-linejoin="round"/>
<path fill-rule="evenodd" clip-rule="evenodd" d="M68.2925 181.237C90.5325 181.167 141.747 195.339 165.04 196.391L165.741 164.75C165.741 164.75 190.437 189.516 202.223 187.551C222.85 184.113 246.422 176.747 246.422 176.747L240.95 156.682L235.478 136.617L206.924 136.336C206.924 136.336 191.91 89.1202 185.385 87.8574L166.794 78.1055C166.794 78.1055 148.693 84.6301 125.05 68.2133C110.527 58.1106 77.6235 80.2102 78.3952 99.5737C79.3774 120.27 67.8014 159.348 68.2925 181.237Z" fill="#1C2628" stroke="#1C2628" stroke-width="2.13" stroke-linecap="round" stroke-linejoin="round"/>
<path d="M178.758 377.295C178.862 375.011 166.585 372.593 151.336 371.894C136.086 371.194 123.639 372.478 123.534 374.762C123.43 377.045 135.707 379.464 150.956 380.163C166.206 380.863 178.653 379.579 178.758 377.295Z" fill="#1C2628" stroke="#1C2628" stroke-width="2.13" stroke-linecap="round" stroke-linejoin="round"/>
<path fill-rule="evenodd" clip-rule="evenodd" d="M52.9291 356.841C55.104 356.07 64.2946 358.665 71.8015 371.013C79.3084 383.291 84.4299 397.813 82.4654 399.006C80.501 400.199 72.2225 387.57 64.7156 375.293C57.2087 363.015 46.8956 359.016 52.9291 356.841Z" fill="#1C2628" stroke="#1C2628" stroke-width="2.13" stroke-linecap="round" stroke-linejoin="round"/>
<path d="M97.5478 247.887C102.178 241.292 102.389 235.258 101.407 230.768C100.705 227.752 99.9332 209.019 99.0913 207.686L87.375 211.685" fill="#F3A13B"/>
<path d="M97.5478 247.887C102.178 241.292 102.389 235.258 101.407 230.768C100.705 227.752 99.9332 209.019 99.0913 207.686L87.375 211.685" stroke="#1C2628" stroke-width="2.13" stroke-linecap="round" stroke-linejoin="round"/>
<path fill-rule="evenodd" clip-rule="evenodd" d="M169.319 387.22C163.636 364.208 202.644 298.54 202.644 298.54L137.257 326.182L131.645 399.146L159.778 412.687L190.857 406.373C190.857 406.373 171.003 394.165 169.319 387.22Z" fill="#F3A13B" stroke="#1C2628" stroke-width="2.13" stroke-linecap="round" stroke-linejoin="round"/>
<path fill-rule="evenodd" clip-rule="evenodd" d="M64.2238 227.19C53.8405 216.526 68.9244 187.692 68.9244 187.692C68.9244 187.692 124.98 197.303 124.7 197.233C123.928 197.093 207.065 200.601 232.391 215.123C244.248 221.928 243.406 247.185 238.355 259.884L177.739 376.345C177.739 376.345 165.531 373.048 161.322 372.627C152.201 371.715 124.629 373.469 124.629 373.469L161.111 273.845L94.2513 257.147C82.8156 254.061 72.5024 235.749 64.2238 227.19Z" fill="#47584E" stroke="#1C2628" stroke-width="2.13" stroke-linecap="round" stroke-linejoin="round"/>
<path fill-rule="evenodd" clip-rule="evenodd" d="M161.813 397.673L168.057 388.693C168.057 388.693 179.774 393.884 191.56 399.146C182.229 403.356 171.425 402.093 161.813 397.673Z" fill="#1C2628" stroke="#1C2628" stroke-width="2.13" stroke-linecap="round" stroke-linejoin="round"/>
<path fill-rule="evenodd" clip-rule="evenodd" d="M129.471 392.13C129.471 392.13 137.328 385.886 141.468 394.305C142.941 397.252 154.306 403.636 158.376 402.654L161.883 397.673C171.495 402.093 182.299 403.426 191.63 399.146C198.856 402.373 206.083 405.671 210.643 407.705C223.622 413.599 219.763 424.403 219.763 424.403L165.251 424.754L125.893 422.439L129.471 392.13Z" fill="#F3A13B" stroke="#1C2628" stroke-width="2.13" stroke-linecap="round" stroke-linejoin="round"/>
<path d="M84.8496 220.034L98.39 215.053" stroke="#1C2628" stroke-width="2.13" stroke-linecap="round" stroke-linejoin="round"/>
<path fill-rule="evenodd" clip-rule="evenodd" d="M69.9768 389.114C78.8868 375.293 126.313 355.157 126.313 355.157L86.6042 331.023L39.5986 369.049L43.6678 395.779L66.6093 417.668C66.5391 417.738 66.048 395.147 69.9768 389.114Z" fill="#F3A13B" stroke="#1C2628" stroke-width="2.13" stroke-linecap="round" stroke-linejoin="round"/>
<path fill-rule="evenodd" clip-rule="evenodd" d="M85.9732 262.971L133.47 296.015L53.4201 356.42L52.8589 356.841C52.8589 356.841 61.1375 360.77 67.3815 368.768C72.7836 375.644 82.325 399.006 82.325 399.006L134.312 364.278L200.47 320.149L205.031 317.132C212.818 310.187 217.238 296.646 215.484 285.561C214.923 282.124 213.87 278.967 212.116 276.301C196.471 252.377 145.186 220.245 143.573 219.333C143.993 219.473 144.485 217.298 144.976 214.071C146.168 206.634 147.361 193.865 147.361 193.865L71.0998 178.431C71.0998 178.431 37.9855 229.856 58.261 249.22C66.8904 257.428 80.2203 257.709 85.9732 262.971Z" fill="#47584E" stroke="#1C2628" stroke-width="2.13" stroke-linecap="round" stroke-linejoin="round"/>
<path fill-rule="evenodd" clip-rule="evenodd" d="M53.4893 356.42C57.9793 357.823 61.3469 357.473 63.8726 356.561C71.3794 353.824 70.5375 346.107 79.9386 341.477C92.8476 335.163 104.283 344.844 111.018 338.109C116.28 332.847 111.229 324.92 116.701 320.149C122.103 315.448 174.441 298.47 132.066 275.879C109.685 263.953 104.213 250.342 83.3764 246.554C76.08 245.221 70.6077 245.712 66.6789 246.554C63.5919 247.185 60.7856 248.097 58.26 249.22C68.082 255.814 80.2193 257.779 85.902 262.97L133.399 296.015L53.4893 356.42Z" fill="#1C2628" stroke="#1C2628" stroke-width="2.13" stroke-linecap="round" stroke-linejoin="round"/>
<path d="M52.0156 229.505C64.223 227.471 74.2556 219.543 75.3781 215.684C76.1498 213.089 84.0074 198.215 83.8671 196.882L71.5896 195.409" stroke="#1C2628" stroke-width="2.13" stroke-linecap="round" stroke-linejoin="round"/>
<path fill-rule="evenodd" clip-rule="evenodd" d="M58.541 393.604L70.6081 393.534C70.6081 393.534 70.7484 403.917 72.9233 415.212C65.2761 411.705 61.4876 402.163 58.541 393.604Z" fill="#1C2628" stroke="#1C2628" stroke-width="2.13" stroke-linecap="round" stroke-linejoin="round"/>
<path fill-rule="evenodd" clip-rule="evenodd" d="M43.8782 363.857C43.8782 363.857 53.4898 366.734 48.9295 374.942C47.3861 377.818 48.5787 390.798 51.7358 393.534H58.5411C61.4176 402.093 65.2762 411.704 72.9234 415.212C73.625 419.001 74.3967 422.93 75.0983 426.578C76.0103 431.489 79.3077 427.841 86.2533 431.91C89.3403 433.734 88.2879 442.644 88.2879 442.644L57.6291 439.768L39.9494 414.16L31.4603 400.058L21.0068 382.589L43.8782 363.857Z" fill="#F3A13B" stroke="#1C2628" stroke-width="2.13" stroke-linecap="round" stroke-linejoin="round"/>
<path fill-rule="evenodd" clip-rule="evenodd" d="M74.1854 178.361L147.43 193.795C147.43 193.795 134.03 202.284 126.944 204.038C119.788 205.862 112.702 204.599 108.212 203.407C103.652 202.144 85.9719 196.461 77.9739 202.775C63.8021 207.195 65.4859 192.883 65.4859 192.883L74.1854 178.361Z" fill="#1C2628" stroke="#1C2628" stroke-width="2.13" stroke-linecap="round" stroke-linejoin="round"/>
<path d="M132.136 346.247C128.909 355.438 126.454 365.33 120.49 373.048" stroke="#1C2628" stroke-width="2.13" stroke-linecap="round" stroke-linejoin="round"/>
<path d="M61.5576 198.706L75.8697 200.46" stroke="#1C2628" stroke-width="2.13" stroke-linecap="round" stroke-linejoin="round"/>
<path d="M131.084 207.336L143.572 219.262" stroke="#1C2628" stroke-width="2.13" stroke-linecap="round" stroke-linejoin="round"/>
<path d="M147.921 297.488L133.469 296.085" stroke="#1C2628" stroke-width="2.13" stroke-linecap="round" stroke-linejoin="round"/>
<path d="M117.823 250.482L164.057 295.383L69.2744 356.49L91.1636 389.254" stroke="#1C2628" stroke-width="2.13" stroke-linecap="round" stroke-linejoin="round"/>
<path d="M171.635 129.671L165.672 164.68" stroke="#1C2628" stroke-width="2.13" stroke-linecap="round" stroke-linejoin="round"/>
<path d="M278.906 120.2L78.1152 297.348" stroke="#1C2628" stroke-width="2.13" stroke-linecap="round" stroke-linejoin="round"/>
<path d="M318.335 85.4019L294.762 106.239" stroke="#1C2628" stroke-width="2.13" stroke-linecap="round" stroke-linejoin="round"/>
<path fill-rule="evenodd" clip-rule="evenodd" d="M128.068 253.78C125.122 268.162 101.549 285.561 101.549 285.561C101.549 285.561 96.3571 282.685 98.6021 279.177C100.847 275.599 108.214 267.32 108.214 267.32C108.214 267.32 103.864 268.302 103.513 266.829C103.162 265.356 104.355 263.602 104.355 263.602C104.355 263.602 102.601 262.479 100.777 261.357C99.0231 260.234 101.619 258.13 101.619 258.13C101.619 258.13 96.287 254.762 94.533 253.569C92.7791 252.447 90.6744 249.851 90.6744 249.851C90.6744 249.851 92.6388 244.87 94.3927 245.992C96.1466 247.115 101.198 249.079 101.198 249.079L82.957 230.067L90.2534 219.473L105.899 211.896C118.176 228.944 129.471 246.975 128.068 253.78Z" fill="#F3A13B" stroke="#1C2628" stroke-width="2.13" stroke-linecap="round" stroke-linejoin="round"/>
<path fill-rule="evenodd" clip-rule="evenodd" d="M51.3858 197.233L78.3965 234.697C78.3965 234.697 86.1138 225.717 89.2007 223.332C90.1128 222.63 91.3756 221.788 92.8489 220.806C99.1631 216.737 109.336 211.054 109.336 211.054C103.232 203.617 80.7116 174.221 80.7116 174.221L120 120.761L126.735 116.762L129.752 114.938L80.2907 90.8741L42.2653 158.506C40.3711 169.591 43.6685 189.165 51.3858 197.233Z" fill="#1C2628" stroke="#1C2628" stroke-width="2.13" stroke-linecap="round" stroke-linejoin="round"/>
<path d="M116.772 263.391C115.719 264.724 114.246 265.636 112.633 266.268C111.019 266.899 109.335 267.18 107.651 267.461" stroke="#1C2628" stroke-width="2.13" stroke-linecap="round" stroke-linejoin="round"/>
<path d="M112.914 259.813C110.248 262.129 106.67 263.321 103.092 263.111" stroke="#1C2628" stroke-width="2.13" stroke-linecap="round" stroke-linejoin="round"/>
<path d="M110.318 254.481C108.844 255.604 107.231 256.586 105.547 257.288C104.775 257.639 103.933 257.919 103.091 257.919C102.25 257.989 101.337 257.779 100.706 257.147" stroke="#1C2628" stroke-width="2.13" stroke-linecap="round" stroke-linejoin="round"/>
<path d="M145.256 416.265L126.594 416.335" stroke="#1C2628" stroke-width="2.13" stroke-linecap="round" stroke-linejoin="round"/>
<path d="M219.342 416.054H154.236" stroke="#1C2628" stroke-width="2.13" stroke-linecap="round" stroke-linejoin="round"/>
<path d="M35.8799 393.604L25.707 378.871" stroke="#1C2628" stroke-width="2.13" stroke-linecap="round" stroke-linejoin="round"/>
<path d="M88.4283 436.54L62.8909 432.541L39.5986 398.936" stroke="#1C2628" stroke-width="2.13" stroke-linecap="round" stroke-linejoin="round"/>
<path fill-rule="evenodd" clip-rule="evenodd" d="M167.075 78.1055L185.456 87.7872C191.911 89.05 206.995 136.266 206.995 136.266L235.549 136.547L241.021 156.612C229.024 158.436 220.395 144.825 212.677 146.158C200.54 148.263 197.032 151.069 193.384 146.579C189.104 141.317 199.979 130.934 190.788 122.235C181.878 113.745 174.091 121.603 170.723 104.485C169.741 99.5035 175.774 92.6281 172.758 88.4888C168.408 82.5956 157.042 86.3841 154.867 81.7537C154.657 81.3327 152.412 79.5086 152.342 78.9474C156.621 79.4385 164.9 78.5264 167.075 78.1055Z" fill="#F3A13B"/>
<path fill-rule="evenodd" clip-rule="evenodd" d="M77.974 202.775C83.3761 209.44 88.3573 215.474 92.8474 220.806C99.1616 216.737 109.334 211.054 109.334 211.054C103.231 203.617 80.7101 174.221 80.7101 174.221L119.998 120.761L126.733 116.762C122.875 113.605 117.823 110.729 111.65 110.308C96.4254 109.326 81.1311 123.778 79.7279 136.897C79.0264 143.422 82.2536 144.755 80.8505 150.648C77.974 162.715 62.9603 162.505 60.2943 172.187C58.6807 177.659 61.9079 182.921 77.974 202.775Z" fill="#F3A13B"/>
<path fill-rule="evenodd" clip-rule="evenodd" d="M173.529 101.819C177.669 109.957 179.914 111.5 181.247 111.22C183.001 110.799 184.404 106.73 182.79 103.783C181.176 100.837 176.897 99.6438 173.529 101.819Z" fill="#1C2628" stroke="#1C2628" stroke-width="2.13" stroke-linecap="round" stroke-linejoin="round"/>
<path fill-rule="evenodd" clip-rule="evenodd" d="M187.982 115.991C188.964 115.64 189.245 112.202 188.122 111.711C187.421 111.36 185.948 112.132 185.667 113.325C185.316 114.868 187.21 116.271 187.982 115.991Z" fill="#1C2628" stroke="#1C2628" stroke-width="2.13" stroke-linecap="round" stroke-linejoin="round"/>
<path fill-rule="evenodd" clip-rule="evenodd" d="M89.8315 141.949C92.0064 141.317 92.708 138.581 92.708 137.038C92.7781 134.091 90.5331 130.934 88.4985 131.004C85.9729 131.074 83.2367 136.126 84.9205 139.353C85.7624 140.967 87.8671 142.51 89.8315 141.949Z" fill="#1C2628" stroke="#1C2628" stroke-width="2.13" stroke-linecap="round" stroke-linejoin="round"/>
<path fill-rule="evenodd" clip-rule="evenodd" d="M143.643 219.262C145.256 220.174 196.471 252.307 212.186 276.23C213.94 278.896 215.063 282.124 215.554 285.491C218.922 283.246 221.588 280.37 222.78 276.721C225.306 269.215 221.307 259.533 215.273 254.061C206.434 246.063 196.822 250.693 188.824 241.853C184.123 236.661 185.737 233.083 182.37 227.822C175.775 217.438 157.604 212.387 144.976 214.001C144.555 217.228 144.064 219.473 143.643 219.262Z" fill="#1C2628" stroke="#1C2628" stroke-width="2.13" stroke-linecap="round" stroke-linejoin="round"/>
<path fill-rule="evenodd" clip-rule="evenodd" d="M134.452 364.278C138.1 365.541 141.889 366.102 145.397 365.751C151.5 365.05 152.412 361.893 165.181 354.456C180.826 345.335 183.983 347.44 189.947 341.757C195.77 336.215 199.418 327.796 200.611 320.149L134.452 364.278Z" fill="#1C2628" stroke="#1C2628" stroke-width="2.13" stroke-linecap="round" stroke-linejoin="round"/>
<path fill-rule="evenodd" clip-rule="evenodd" d="M296.797 100.556L300.445 103.783C303.391 106.379 307.952 106.098 310.547 103.222L321.632 90.804C324.228 87.8573 323.948 83.2971 321.071 80.7013L317.423 77.474C314.476 74.8782 309.916 75.1588 307.32 78.0353L296.235 90.4532C293.569 93.3998 293.85 97.96 296.797 100.556Z" fill="#1C2628" stroke="#1C2628" stroke-width="2.13" stroke-linecap="round" stroke-linejoin="round"/>
<path d="M321.632 91.2249L307.53 79.2982" stroke="#F3A13B" stroke-width="2.13" stroke-linecap="round" stroke-linejoin="round"/>
<path d="M312.3 102.31L297.988 89.5411" stroke="#F3A13B" stroke-width="2.13" stroke-linecap="round" stroke-linejoin="round"/>
<path d="M321.421 84.139L303.882 103.502" stroke="#F3A13B" stroke-width="2.13" stroke-linecap="round" stroke-linejoin="round"/>
<path d="M314.405 77.6846L296.305 97.2585" stroke="#F3A13B" stroke-width="2.13" stroke-linecap="round" stroke-linejoin="round"/>
<path d="M101.058 200.6L109.336 211.054L99.7246 216.596" stroke="#1C2628" stroke-width="2.13" stroke-linecap="round" stroke-linejoin="round"/>
<path d="M113.053 139.984L88.5684 173.73" stroke="white" stroke-width="2.13" stroke-linecap="round" stroke-linejoin="round"/>
<path d="M123.788 136.547L101.127 167.697" stroke="white" stroke-width="2.13" stroke-linecap="round" stroke-linejoin="round"/>
<path d="M167.426 135.354C166.023 144.474 166.724 165.522 166.514 165.802" stroke="white" stroke-width="2.13" stroke-linecap="round" stroke-linejoin="round"/>
<path d="M56.0152 154.577C58.0498 156.401 59.4529 159.278 58.8215 161.944C58.5409 163.136 57.9095 164.189 57.3482 165.241C53.1388 173.66 54.1911 184.464 60.0843 191.761C62.6802 195.058 66.1881 197.654 68.5734 201.092" stroke="white" stroke-width="2.13" stroke-linecap="round" stroke-linejoin="round"/>
<path d="M53.4199 188.674C55.244 198.075 63.5928 204.6 68.4336 212.808" stroke="white" stroke-width="2.13" stroke-linecap="round" stroke-linejoin="round"/>
<path d="M188.824 91.0846C197.313 108.273 206.925 136.196 206.925 136.196L235.479 136.477" stroke="#1C2628" stroke-width="2.13" stroke-linecap="round" stroke-linejoin="round"/>
<path d="M171.705 163.487C175.564 167.065 179.633 170.363 184.193 172.958C191.209 176.957 210.222 182.851 210.222 182.851C215.273 177.799 221.657 180.535 226.428 182.219" stroke="white" stroke-width="2.13" stroke-linecap="round" stroke-linejoin="round"/>
<path d="M209.59 177.869C204.469 178.781 199.838 174.432 194.646 173.8" stroke="white" stroke-width="2.13" stroke-linecap="round" stroke-linejoin="round"/>
<path d="M140.976 78.6668C138.24 78.9474 135.715 77.3338 133.189 76.1411C128.769 74.1065 123.437 73.0542 120.631 69.0552C114.737 69.4761 107.581 70.5285 102.32 73.2646C100.566 74.1767 98.8818 75.2992 97.5488 76.8427C95.6546 79.0175 94.3917 81.9642 91.7959 83.227" stroke="white" stroke-width="2.13" stroke-linecap="round" stroke-linejoin="round"/>
<path d="M208.538 288.368C209.52 293.489 210.432 299.242 207.626 303.662C206.363 305.626 204.469 307.1 202.645 308.503C191.56 317.132 180.265 325.411 168.829 333.479" stroke="#1C2628" stroke-width="2.13" stroke-linecap="round" stroke-linejoin="round"/>
<path d="M183.422 313.905C175.214 319.167 167.426 325.06 160.059 331.514C156.622 334.531 153.184 337.688 148.975 339.583" stroke="#1C2628" stroke-width="2.13" stroke-linecap="round" stroke-linejoin="round"/>
<path d="M161.182 323.937C157.113 328.848 151.43 332.146 145.887 335.233C143.011 336.846 140.134 338.46 137.328 340.074" stroke="#1C2628" stroke-width="2.13" stroke-linecap="round" stroke-linejoin="round"/>
<path d="M185.316 351.509C182.72 356.42 176.476 366.383 173.249 370.873" stroke="#1C2628" stroke-width="2.13" stroke-linecap="round" stroke-linejoin="round"/>
<path d="M175.703 355.578C174.932 358.946 173.669 362.173 171.845 365.12" stroke="#1C2628" stroke-width="2.13" stroke-linecap="round" stroke-linejoin="round"/>
<path fill-rule="evenodd" clip-rule="evenodd" d="M445.53 364.278L446.652 446.643L465.875 542.548C465.875 542.548 470.856 561.912 467.84 567.033C465.104 571.664 447.213 568.717 447.213 568.717C447.213 568.717 403.786 572.576 391.929 568.577C371.163 561.561 398.384 555.948 398.384 555.948L430.867 543.671L400.348 461.797L382.879 365.401L445.53 364.278Z" fill="#F3A13B" stroke="#1C2628" stroke-width="2.13" stroke-linecap="round" stroke-linejoin="round"/>
<path fill-rule="evenodd" clip-rule="evenodd" d="M343.24 364.909L334.611 463.691L336.435 531.604C336.435 531.604 342.889 544.302 340.293 549.634C337.978 554.475 319.878 553.002 319.878 553.002C319.878 553.002 282.063 559.316 269.925 556.299C248.668 551.037 270.206 544.443 270.206 544.443L301.567 529.429L288.517 455.904L294.902 355.508L343.24 364.909Z" fill="#F3A13B" stroke="#1C2628" stroke-width="2.13" stroke-linecap="round" stroke-linejoin="round"/>
<path fill-rule="evenodd" clip-rule="evenodd" d="M421.326 168.609C421.326 168.609 471.348 196.672 486.923 218.07C497.867 233.154 516.249 266.478 516.249 266.478C516.249 266.478 524.387 275.248 521.721 282.685C518.704 291.104 522.703 290.683 523.335 292.647C530.14 315.027 500.393 299.663 500.393 299.663L495.412 274.055L452.967 229.646L406.452 205.091L421.326 168.609Z" fill="#F3A13B" stroke="#1C2628" stroke-width="2.13" stroke-linecap="round" stroke-linejoin="round"/>
<path fill-rule="evenodd" clip-rule="evenodd" d="M332.295 196.181L321.07 263.111L292.516 253.92C292.516 253.92 293.287 212.948 300.163 188.533C307.038 164.119 328.226 162.014 328.226 162.014L332.295 196.181Z" fill="#F3A13B" stroke="#1C2628" stroke-width="2.13" stroke-linecap="round" stroke-linejoin="round"/>
<path fill-rule="evenodd" clip-rule="evenodd" d="M396.068 171.415L387.86 162.224L374.951 161.523L366.462 173.941L360.709 162.365L347.589 161.593L338.048 166.925L340.293 244.659L399.997 248.027L396.068 171.415Z" fill="#F3A13B" stroke="#1C2628" stroke-width="2.13" stroke-linecap="round" stroke-linejoin="round"/>
<path fill-rule="evenodd" clip-rule="evenodd" d="M387.859 127.426C393.682 108.694 386.035 94.2417 359.305 97.6093C356.218 98.0302 352.5 98.381 349.694 99.9946C337.065 107.361 340.433 126.514 339.03 128.268C335.662 132.337 339.872 138.02 336.434 145.106C329.348 159.839 334.399 178.711 334.399 178.711L401.049 176.747C401.049 176.747 403.785 170.152 400.488 157.804C399.295 153.455 394.033 153.665 393.051 141.668C391.999 129.741 387.859 127.426 387.859 127.426Z" fill="#1C2628" stroke="#1C2628" stroke-width="2.13" stroke-linecap="round" stroke-linejoin="round"/>
<path fill-rule="evenodd" clip-rule="evenodd" d="M355.026 140.054L355.236 156.542L351.097 161.382C351.097 161.382 349.063 177.729 355.517 181.658C362.673 185.867 378.599 177.589 384.071 176.186C388.982 174.923 381.125 164.68 381.125 164.68L380.563 145.807L380.984 138.441L355.026 140.054Z" fill="#F3A13B" stroke="#1C2628" stroke-width="2.13" stroke-linecap="round" stroke-linejoin="round"/>
<path fill-rule="evenodd" clip-rule="evenodd" d="M351.659 130.232C350.536 126.093 350.887 117.885 351.94 114.096C353.764 107.291 355.728 110.308 362.604 108.413C370.321 106.309 374.039 103.222 379.091 109.396C381.055 111.781 386.808 120.761 387.72 123.988C390.877 135.564 384.773 147.281 374.109 150.227C367.234 152.122 361.621 151.49 356.64 146.649C353.834 143.983 352.852 134.372 351.659 130.232Z" fill="#F3A13B" stroke="#1C2628" stroke-width="2.13" stroke-linecap="round" stroke-linejoin="round"/>
<path fill-rule="evenodd" clip-rule="evenodd" d="M367.234 129.18C366.672 127.566 368.146 125.672 370.531 124.901C372.846 124.129 375.161 124.83 375.723 126.374C376.214 127.987 374.811 129.882 372.425 130.653C370.04 131.495 367.725 130.794 367.234 129.18Z" fill="#FAFCFF" stroke="#1C2628" stroke-width="2.13" stroke-linecap="round" stroke-linejoin="round"/>
<path fill-rule="evenodd" clip-rule="evenodd" d="M381.125 122.796C380.634 121.182 382.107 119.288 384.422 118.516C386.737 117.744 389.052 118.446 389.614 119.989C390.105 121.603 388.702 123.497 386.316 124.269C383.931 125.111 381.616 124.409 381.125 122.796Z" fill="#FAFCFF" stroke="#1C2628" stroke-width="2.13" stroke-linecap="round" stroke-linejoin="round"/>
<path fill-rule="evenodd" clip-rule="evenodd" d="M357.412 158.506L355.729 141.668C355.729 141.668 369.269 138.651 372.566 142.229C375.794 145.737 372.356 157.313 372.356 157.313L364.218 158.506" fill="#F3A13B"/>
<path fill-rule="evenodd" clip-rule="evenodd" d="M343.521 128.549C346.748 134.302 352.15 121.393 352.15 121.393L374.039 116.201L375.583 105.046L380.704 117.534L388.492 117.394C388.492 117.394 382.318 101.889 380.704 100.415C374.32 94.3118 363.446 94.6626 356.43 100.486C350.607 105.326 336.856 116.762 343.521 128.549Z" fill="#1C2628" stroke="#1C2628" stroke-width="2.13" stroke-linecap="round" stroke-linejoin="round"/>
<path fill-rule="evenodd" clip-rule="evenodd" d="M353.834 131.495C352.29 129.601 349.203 131.495 348.642 133.319C347.45 137.038 350.256 143.282 356.079 139.563" fill="#F3A13B"/>
<path d="M353.834 131.495C352.29 129.601 349.203 131.495 348.642 133.319C347.45 137.038 350.256 143.282 356.079 139.563" stroke="#1C2628" stroke-width="2.13" stroke-linecap="round" stroke-linejoin="round"/>
<path fill-rule="evenodd" clip-rule="evenodd" d="M369.9 130.022C368.777 130.724 367.374 130.583 366.813 129.671C366.252 128.759 366.673 127.426 367.795 126.725C368.918 126.023 370.321 126.163 370.882 127.075C371.443 127.987 371.022 129.32 369.9 130.022Z" fill="#1C2628" stroke="#1C2628" stroke-width="2.13" stroke-linecap="round" stroke-linejoin="round"/>
<path fill-rule="evenodd" clip-rule="evenodd" d="M380.985 123.357C380.213 122.235 380.424 120.41 383.37 119.919C384.423 119.709 384.352 120.27 385.054 121.322C385.826 122.445 384.773 123.638 383.931 124.269C383.019 124.901 381.757 124.48 380.985 123.357Z" fill="#1C2628" stroke="#1C2628" stroke-width="2.13" stroke-linecap="round" stroke-linejoin="round"/>
<path d="M352.29 135.073C352.43 135.214 352.501 135.354 352.641 135.494" stroke="#1C2628" stroke-width="2.13" stroke-linecap="round" stroke-linejoin="round"/>
<path fill-rule="evenodd" clip-rule="evenodd" d="M391.228 161.803L395.998 174.993L405.47 201.232L399.717 216.807L398.103 242.274L330.05 268.162L322.333 193.515L344.643 177.729L346.046 156.822L353.904 157.664L355.938 162.856C358.394 169.24 364.498 173.45 371.373 173.45H373.338C379.441 173.45 384.142 168.118 383.37 162.084L383.019 159.278L391.228 161.803Z" fill="#1C2628" stroke="#1C2628" stroke-width="2.13" stroke-linecap="round" stroke-linejoin="round"/>
<path fill-rule="evenodd" clip-rule="evenodd" d="M370.741 139.072C373.337 141.458 376.915 138.792 380.142 138.581C380.142 138.581 379.932 144.334 374.108 143.773C370.25 143.352 370.741 139.072 370.741 139.072Z" fill="#1C2628" stroke="#1C2628" stroke-width="2.13" stroke-linecap="round" stroke-linejoin="round"/>
<path fill-rule="evenodd" clip-rule="evenodd" d="M379.581 125.111C383.58 125.883 387.86 124.55 388.351 126.865C388.912 129.882 382.457 132.057 381.616 131.916" fill="#F3A13B"/>
<path d="M379.581 125.111C383.58 125.883 387.86 124.55 388.351 126.865C388.912 129.882 382.457 132.057 381.616 131.916" stroke="#1C2628" stroke-width="2.13" stroke-linecap="round" stroke-linejoin="round"/>
<path d="M367.585 105.116C365.62 108.624 365.901 112.974 365.199 116.973" stroke="#F3A13B" stroke-width="2.13" stroke-linecap="round" stroke-linejoin="round"/>
<path d="M355.518 108.063C338.61 106.73 343.381 139.072 341.697 148.193" stroke="#F3A13B" stroke-width="2.13" stroke-linecap="round" stroke-linejoin="round"/>
<path fill-rule="evenodd" clip-rule="evenodd" d="M284.799 465.585L295.112 460.815L304.724 470.286L313.493 458.008L325.981 469.163L332.225 460.464L344.924 468.953L341.346 406.092L373.618 329.76C373.618 329.76 374.6 336.425 376.214 346.598C380.704 375.714 389.895 433.313 393.613 444.117C393.753 444.468 395.086 453.168 396.069 459.271C396.63 462.639 396.981 465.164 396.981 465.164L406.312 458.359L416.414 469.725L426.657 460.534L437.321 470.988L444.968 461.657L455.843 470.777L458.719 459.973C458.719 459.973 444.547 331.865 433.884 302.68C423.22 273.494 412.766 271.109 412.766 271.109L320.86 252.798C320.86 252.798 319.597 257.218 317.492 264.444C308.652 294.892 285.711 375.854 285.711 389.956C285.781 400.76 285.36 427.069 285.079 445.52C284.939 457.167 284.799 465.585 284.799 465.585Z" fill="#1C2628" stroke="#1C2628" stroke-width="2.13" stroke-linecap="round" stroke-linejoin="round"/>
<path fill-rule="evenodd" clip-rule="evenodd" d="M352.151 156.892L331.174 145.386L328.017 158.997L316.37 159.278L321.492 174.923L306.268 180.325L313.143 194.216L303.251 204.529L318.756 210.773L318.195 264.865L353.343 265.286L352.151 156.892Z" fill="#1C2628" stroke="#1C2628" stroke-width="2.13" stroke-linecap="round" stroke-linejoin="round"/>
<path fill-rule="evenodd" clip-rule="evenodd" d="M387.719 160.681C387.719 160.681 379.862 255.534 380.213 261.287C380.563 267.04 413.958 255.744 413.958 255.744L417.326 208.037L429.954 203.407L421.535 192.883L436.479 185.797L425.885 180.114L436.76 163.768L411.222 161.663L387.719 160.681Z" fill="#1C2628" stroke="#1C2628" stroke-width="2.13" stroke-linecap="round" stroke-linejoin="round"/>
<path fill-rule="evenodd" clip-rule="evenodd" d="M330.683 290.753C339.593 304.153 355.097 299.102 367.375 305.837C377.127 311.169 383.722 326.744 390.878 335.092C413.188 360.91 447.074 365.05 472.611 317.904C473.593 316.08 474.505 314.185 475.347 312.291C486.081 287.806 485.169 253.71 444.759 243.537C413.609 235.679 402.033 238.766 394.736 239.187C391.79 239.327 389.545 239.047 387.019 237.433C375.794 230.347 367.305 204.74 351.94 206.915C350.256 207.125 341.346 209.581 343.1 221.507C344.854 233.364 358.254 246.483 358.886 254.481C359.166 258.13 362.324 268.794 355.799 266.478C343.872 262.129 320.72 275.809 330.683 290.753Z" fill="#63A31F" stroke="#1C2628" stroke-width="2.13" stroke-linecap="round" stroke-linejoin="round"/>
<path fill-rule="evenodd" clip-rule="evenodd" d="M358.884 237.994C361.901 222.349 384.422 248.378 391.648 252.517C406.732 261.006 441.67 251.044 438.653 276.23C437.671 284.369 429.743 290.613 424.622 296.506C420.904 300.785 421.746 323.306 409.959 326.253C397.471 329.34 390.596 310.748 379.932 303.03C371.934 297.278 349.694 296.506 345.975 286.543C341.345 274.196 355.096 275.739 359.446 267.461C363.936 258.901 357.13 246.904 358.884 237.994Z" fill="#F3A13B" stroke="#1C2628" stroke-width="2.13" stroke-linecap="round" stroke-linejoin="round"/>
<path fill-rule="evenodd" clip-rule="evenodd" d="M246.984 192.743C236.39 189.235 231.128 181.518 219.973 181.237C208.818 181.027 203.977 184.254 219.412 197.864C234.846 211.545 227.69 209.23 239.056 217.158C250.421 225.085 256.385 221.928 256.385 221.928L260.594 224.033L267.4 207.546C265.295 205.231 256.244 195.76 246.984 192.743Z" fill="#1C2628" stroke="#1C2628" stroke-width="2.13" stroke-linecap="round" stroke-linejoin="round"/>
<path fill-rule="evenodd" clip-rule="evenodd" d="M427.709 286.614L267.82 208.037C267.82 208.037 267.68 207.827 267.399 207.546L260.594 224.033L419.571 302.68L427.709 286.614Z" fill="#F3A13B" stroke="#1C2628" stroke-width="2.13" stroke-linecap="round" stroke-linejoin="round"/>
<path fill-rule="evenodd" clip-rule="evenodd" d="M441.46 281.913L427.429 273.845L409.679 309.976L423.5 316.571L441.46 281.913Z" fill="#1C2628" stroke="#1C2628" stroke-width="2.13" stroke-linecap="round" stroke-linejoin="round"/>
<path d="M423.43 291.946L263.751 212.457" stroke="#1C2628" stroke-width="2.13" stroke-linecap="round" stroke-linejoin="round"/>
<path d="M420.343 296.506L260.384 217.859" stroke="#1C2628" stroke-width="2.13" stroke-linecap="round" stroke-linejoin="round"/>
<path fill-rule="evenodd" clip-rule="evenodd" d="M304.443 283.737C324.157 292.928 320.86 253.008 320.86 253.008L293.989 241.081L270.417 230.628L271.75 214.492C271.75 214.492 272.03 211.194 270.487 209.861C268.943 208.528 265.576 209.23 265.576 209.23C265.576 209.23 265.155 205.862 264.032 205.091C260.594 202.565 257.999 204.459 257.999 204.459L254.28 197.794C254.28 197.794 257.367 193.234 258.139 189.726C258.911 186.569 257.437 184.324 256.946 184.534C255.263 185.166 248.106 196.742 248.106 196.742L248.948 223.332C249.019 223.261 284.729 274.546 304.443 283.737Z" fill="#F3A13B" stroke="#1C2628" stroke-width="2.13" stroke-linecap="round" stroke-linejoin="round"/>
<path d="M265.646 208.949C264.804 213.509 262.138 221.999 263.962 226.278" stroke="#1C2628" stroke-width="2.13" stroke-linecap="round" stroke-linejoin="round"/>
<path d="M259.823 204.249C255.754 205.301 253.649 221.578 256.385 224.173" stroke="#1C2628" stroke-width="2.13" stroke-linecap="round" stroke-linejoin="round"/>
<path d="M520.598 301.136C519.406 298.751 517.792 297.067 516.529 294.682" stroke="#1C2628" stroke-width="2.13" stroke-linecap="round" stroke-linejoin="round"/>
<path d="M513.301 301.838C510.776 297.348 511.758 288.368 510.004 283.527" stroke="#1C2628" stroke-width="2.13" stroke-linecap="round" stroke-linejoin="round"/>
<path d="M507.058 301.557C505.163 300.645 503.69 285.14 503.059 282.334" stroke="#1C2628" stroke-width="2.13" stroke-linecap="round" stroke-linejoin="round"/>
<path fill-rule="evenodd" clip-rule="evenodd" d="M388.982 107.852C388.982 107.852 391.929 90.804 372.635 92.628C353.342 94.4521 338.96 101.468 338.609 106.8C338.258 112.132 339.661 116.341 339.661 116.341L388.982 107.852Z" fill="#F3A13B" stroke="#1C2628" stroke-width="2.13" stroke-linecap="round" stroke-linejoin="round"/>
<path fill-rule="evenodd" clip-rule="evenodd" d="M389.825 109.957C389.825 109.957 401.12 100.275 396.841 96.7674C389.755 90.804 351.238 106.8 351.238 106.8L338.82 116.061L389.825 109.957Z" fill="#F3A13B" stroke="#1C2628" stroke-width="2.13" stroke-linecap="round" stroke-linejoin="round"/>
<path d="M434.305 360.419C434.305 360.419 445.811 428.332 449.739 462.007" stroke="#F3A13B" stroke-width="2.13" stroke-linecap="round" stroke-linejoin="round"/>
<path d="M357.832 323.867C344.011 346.318 325.279 407.425 325.279 407.425C325.279 407.425 325.981 437.312 327.594 451.694" stroke="#F3A13B" stroke-width="2.13" stroke-linecap="round" stroke-linejoin="round"/>
<path fill-rule="evenodd" clip-rule="evenodd" d="M469.103 542.969L471.979 563.596L423.5 564.227L410.311 549.283L424.973 540.584L425.675 528.868L439.005 542.969H469.103Z" fill="#1C2628" stroke="#1C2628" stroke-width="2.13" stroke-linecap="round" stroke-linejoin="round"/>
<path fill-rule="evenodd" clip-rule="evenodd" d="M340.293 529.92L340.153 547.389L295.322 551.669L281.08 537.778L295.041 527.955L298.69 516.029L309.213 529.359L340.293 529.92Z" fill="#1C2628" stroke="#1C2628" stroke-width="2.13" stroke-linecap="round" stroke-linejoin="round"/>
<path fill-rule="evenodd" clip-rule="evenodd" d="M471.979 559.667L472.54 571.243L381.686 572.155C381.686 572.155 376.284 561.982 384.914 557.281C393.543 552.581 413.889 547.319 413.889 547.319L421.466 559.667H471.979Z" fill="#F3A13B" stroke="#1C2628" stroke-width="2.13" stroke-linecap="round" stroke-linejoin="round"/>
<path fill-rule="evenodd" clip-rule="evenodd" d="M340.644 543.46L341.346 556.369L252.316 557.001C252.316 557.001 248.177 553.002 256.385 547.67C264.664 542.338 284.518 535.533 284.518 535.533L293.007 547.249L340.644 543.46Z" fill="#F3A13B" stroke="#1C2628" stroke-width="2.13" stroke-linecap="round" stroke-linejoin="round"/>
<path fill-rule="evenodd" clip-rule="evenodd" d="M450.721 557.492C451.282 555.948 450.44 554.194 448.897 553.703C447.353 553.212 445.669 554.054 445.108 555.597C444.547 557.211 445.389 558.895 446.932 559.386C448.476 559.947 450.159 559.105 450.721 557.492Z" fill="#F3A13B" stroke="#1C2628" stroke-width="2.13" stroke-linecap="round" stroke-linejoin="round"/>
<path fill-rule="evenodd" clip-rule="evenodd" d="M322.053 542.899C322.473 541.285 321.561 539.672 319.948 539.251C318.334 538.83 316.721 539.812 316.3 541.426C315.879 543.039 316.791 544.723 318.404 545.074C320.018 545.495 321.632 544.513 322.053 542.899Z" fill="#F3A13B" stroke="#1C2628" stroke-width="2.13" stroke-linecap="round" stroke-linejoin="round"/>
<path fill-rule="evenodd" clip-rule="evenodd" d="M437.461 557.422C438.022 555.808 437.18 554.124 435.637 553.633C434.093 553.142 432.41 553.984 431.848 555.527C431.287 557.141 432.129 558.825 433.672 559.316C435.216 559.877 436.9 558.965 437.461 557.422Z" fill="#F3A13B" stroke="#1C2628" stroke-width="2.13" stroke-linecap="round" stroke-linejoin="round"/>
<path fill-rule="evenodd" clip-rule="evenodd" d="M308.792 543.811C309.213 542.197 308.301 540.584 306.687 540.163C305.144 539.742 303.46 540.724 303.109 542.338C302.688 543.951 303.6 545.565 305.214 545.986C306.757 546.407 308.371 545.425 308.792 543.811Z" fill="#F3A13B" stroke="#1C2628" stroke-width="2.13" stroke-linecap="round" stroke-linejoin="round"/>
<path d="M429.183 544.442C429.323 544.653 428.832 544.022 428.691 543.811C427.709 542.268 426.727 540.864 425.604 539.391" stroke="#F3A13B" stroke-width="2.13" stroke-linecap="round" stroke-linejoin="round"/>
<path d="M299.531 531.534C299.672 531.744 299.11 531.183 298.97 530.972C297.918 529.499 296.795 528.166 295.603 526.763" stroke="#F3A13B" stroke-width="2.13" stroke-linecap="round" stroke-linejoin="round"/>
<path d="M425.675 548.652C425.675 548.652 422.167 544.232 420.693 541.847" stroke="#F3A13B" stroke-width="2.13" stroke-linecap="round" stroke-linejoin="round"/>
<path d="M296.375 535.953C296.375 535.953 292.586 531.814 290.902 529.569" stroke="#F3A13B" stroke-width="2.13" stroke-linecap="round" stroke-linejoin="round"/>
<path d="M420.693 550.686C419.5 548.792 418.167 546.968 416.834 545.214" stroke="#F3A13B" stroke-width="2.13" stroke-linecap="round" stroke-linejoin="round"/>
<path d="M291.604 538.339C290.271 536.515 288.798 534.831 287.324 533.147" stroke="#F3A13B" stroke-width="2.13" stroke-linecap="round" stroke-linejoin="round"/>
<path d="M423.079 559.807L394.314 565.349" stroke="#1C2628" stroke-width="2.13" stroke-linecap="round" stroke-linejoin="round"/>
<path d="M294.62 547.319L278.273 551.388" stroke="#1C2628" stroke-width="2.13" stroke-linecap="round" stroke-linejoin="round"/>
<path fill-rule="evenodd" clip-rule="evenodd" d="M285.711 390.166C285.711 379.502 298.76 330.813 309.003 294.471C313.774 296.015 317.983 298.751 320.789 303.451C322.052 305.556 321.21 308.292 319.035 309.415C314.896 311.59 310.687 311.87 308.301 316.501C303.881 325.27 314.616 333.198 314.616 344.704C313.423 346.177 312.23 347.651 310.967 348.984C312.23 347.651 313.493 346.177 314.616 344.704C314.616 346.037 314.475 347.44 314.124 348.914C311.739 359.086 303.39 357.613 298.339 371.785C295.954 378.38 297.567 379.292 294.2 391.71C291.113 403.005 289.569 403.286 289.219 408.758C288.517 420.053 295.112 423.631 294.621 430.787C294.27 435.839 290.411 441.241 285.149 445.731C285.36 427.279 285.781 400.97 285.711 390.166Z" fill="#F3A13B"/>
<path fill-rule="evenodd" clip-rule="evenodd" d="M376.214 346.739C380.704 375.854 389.895 433.453 393.613 444.257C393.753 444.608 395.086 453.308 396.068 459.412C405.891 454.15 416.695 448.958 416.835 445.731C417.046 439.206 404.207 434.786 398.945 423.07C395.156 414.651 398.805 415.914 394.806 400.199C392.14 389.745 386.176 391.289 384.843 384.624C381.125 365.751 390.456 353.824 384.773 348.492C383.51 347.23 381.055 346.107 376.214 346.739Z" fill="#F3A13B"/>
<path fill-rule="evenodd" clip-rule="evenodd" d="M394.806 239.187C395.858 242.765 397.612 245.922 400.067 248.027C407.715 254.762 419.15 245.852 436.409 252.868C438.233 253.64 449.108 258.2 456.334 269.074C465.524 282.825 459.21 292.156 466.296 303.171C468.541 306.679 471.698 309.695 475.417 312.221C486.151 287.736 485.239 253.64 444.828 243.467C413.678 235.679 402.102 238.766 394.806 239.187Z" fill="#1C2628" stroke="#1C2628" stroke-width="2.13" stroke-linecap="round" stroke-linejoin="round"/>
<path d="M309.003 294.471L285.711 385.255L285.36 422.228" stroke="#1C2628" stroke-width="2.13" stroke-linecap="round" stroke-linejoin="round"/>
<path d="M380.634 376.205L396.068 459.482" stroke="#1C2628" stroke-width="2.13" stroke-linecap="round" stroke-linejoin="round"/>
<path d="M400.068 161.523L394.806 160.961L391.93 212.457" stroke="#F3A13B" stroke-width="2.13" stroke-linecap="round" stroke-linejoin="round"/>
<path d="M347.59 161.593V204.249" stroke="#F3A13B" stroke-width="2.13" stroke-linecap="round" stroke-linejoin="round"/>
<path d="M334.891 395.147C335.101 394.937 329.348 408.267 329.419 410.582C329.559 417.948 330.331 438.154 331.593 445.38" stroke="white" stroke-width="2.13" stroke-linecap="round" stroke-linejoin="round"/>
<path d="M333.908 412.546C335.662 424.543 336.925 436.61 337.697 448.677" stroke="white" stroke-width="2.13" stroke-linecap="round" stroke-linejoin="round"/>
<path d="M428.692 357.332C429.604 369.329 431.499 381.256 434.305 392.902" stroke="white" stroke-width="2.13" stroke-linecap="round" stroke-linejoin="round"/>
<path d="M423.99 372.627C424.902 381.326 426.516 390.026 428.761 398.515C432.409 412.336 437.881 426.367 435.987 440.539" stroke="white" stroke-width="2.13" stroke-linecap="round" stroke-linejoin="round"/>
<path d="M436.689 402.865C437.321 407.986 438.022 413.037 438.654 418.159" stroke="white" stroke-width="2.13" stroke-linecap="round" stroke-linejoin="round"/>
<path d="M391.017 386.658C391.367 388.132 392.56 389.254 393.612 390.306C397.822 394.796 400.207 401.04 399.997 407.214" stroke="white" stroke-width="2.13" stroke-linecap="round" stroke-linejoin="round"/>
<path d="M392.77 364.488C392.63 370.662 394.033 376.836 396.769 382.308" stroke="white" stroke-width="2.13" stroke-linecap="round" stroke-linejoin="round"/>
<path d="M322.895 284.018C323.666 287.315 324.508 290.683 326.543 293.419C328.227 295.664 330.612 297.207 332.927 298.751C334.962 300.154 337.066 301.487 339.311 302.469C346.397 305.556 355.167 304.855 361.201 309.766" stroke="white" stroke-width="2.13" stroke-linecap="round" stroke-linejoin="round"/>
<path d="M366.461 321.061C363.865 318.395 361.269 315.659 358.112 313.694C354.955 311.73 351.167 310.467 347.519 311.028" stroke="white" stroke-width="2.13" stroke-linecap="round" stroke-linejoin="round"/>
<path d="M331.033 206.844C327.455 209.09 323.105 210.002 318.896 209.51" stroke="white" stroke-width="2.13" stroke-linecap="round" stroke-linejoin="round"/>
<path d="M321.841 196.181C320.087 196.04 318.333 195.689 316.649 195.058" stroke="white" stroke-width="2.13" stroke-linecap="round" stroke-linejoin="round"/>
<path d="M415.572 208.037C411.012 208.879 406.452 209.23 401.821 209.23" stroke="white" stroke-width="2.13" stroke-linecap="round" stroke-linejoin="round"/>
<path d="M413.328 202.144C408.908 203.687 404.208 204.459 399.577 204.389" stroke="white" stroke-width="2.13" stroke-linecap="round" stroke-linejoin="round"/>
<path d="M400.839 179.343C399.156 187.13 398.314 195.058 398.314 202.986C398.314 206.845 398.384 211.124 395.788 213.93" stroke="white" stroke-width="2.13" stroke-linecap="round" stroke-linejoin="round"/>
<path d="M397.752 216.526C399.225 216.035 400.207 214.281 399.927 212.738" stroke="white" stroke-width="2.13" stroke-linecap="round" stroke-linejoin="round"/>
<path d="M414.661 237.924H396.561" stroke="white" stroke-width="2.13" stroke-linecap="round" stroke-linejoin="round"/>
<path d="M327.945 158.085C331.594 161.172 335.031 164.54 338.329 167.977" stroke="white" stroke-width="2.13" stroke-linecap="round" stroke-linejoin="round"/>
<path d="M388.28 144.404C388.842 149.035 390.385 153.455 392.841 157.454" stroke="white" stroke-width="2.13" stroke-linecap="round" stroke-linejoin="round"/>
<path d="M383.721 143.773C383.931 146.509 384.142 149.315 384.352 152.052" stroke="white" stroke-width="2.13" stroke-linecap="round" stroke-linejoin="round"/>
<path d="M347.729 130.443C347.448 138.792 348.29 144.966 348.01 153.314C348.01 154.226 347.939 155.138 347.519 155.91" stroke="white" stroke-width="2.13" stroke-linecap="round" stroke-linejoin="round"/>
<path d="M172.969 423.351V564.157" stroke="#F3A13B" stroke-width="2.13" stroke-linecap="round" stroke-linejoin="round"/>
<path d="M180.966 441.311H194.506" stroke="#F3A13B" stroke-width="2.13" stroke-linecap="round" stroke-linejoin="round"/>
<path d="M180.966 448.677H194.506" stroke="#F3A13B" stroke-width="2.13" stroke-linecap="round" stroke-linejoin="round"/>
<path d="M180.966 456.044H194.506" stroke="#F3A13B" stroke-width="2.13" stroke-linecap="round" stroke-linejoin="round"/>
<path d="M197.173 436.189H178.09V461.376H197.173V436.189Z" stroke="#F3A13B" stroke-width="2.13" stroke-linecap="round" stroke-linejoin="round"/>
<path d="M92.568 436.189H161.954V461.306H65.417V449.379" stroke="#F3A13B" stroke-width="2.13" stroke-linecap="round" stroke-linejoin="round"/>
<path d="M77.0624 452.957C79.0385 452.957 80.6404 451.355 80.6404 449.379C80.6404 447.403 79.0385 445.801 77.0624 445.801C75.0863 445.801 73.4844 447.403 73.4844 449.379C73.4844 451.355 75.0863 452.957 77.0624 452.957Z" stroke="#F3A13B" stroke-width="2.13" stroke-linecap="round" stroke-linejoin="round"/>
<path d="M92.5673 452.957C94.5434 452.957 96.1453 451.355 96.1453 449.379C96.1453 447.403 94.5434 445.801 92.5673 445.801C90.5912 445.801 88.9893 447.403 88.9893 449.379C88.9893 451.355 90.5912 452.957 92.5673 452.957Z" stroke="#F3A13B" stroke-width="2.13" stroke-linecap="round" stroke-linejoin="round"/>
<path d="M108.072 452.957C110.048 452.957 111.65 451.355 111.65 449.379C111.65 447.403 110.048 445.801 108.072 445.801C106.096 445.801 104.494 447.403 104.494 449.379C104.494 451.355 106.096 452.957 108.072 452.957Z" stroke="#F3A13B" stroke-width="2.13" stroke-linecap="round" stroke-linejoin="round"/>
<path d="M152.974 445.731H119.438V452.887H152.974V445.731Z" stroke="#F3A13B" stroke-width="2.13" stroke-linecap="round" stroke-linejoin="round"/>
<path d="M110.879 537.567C127.734 537.567 141.397 523.903 141.397 507.049C141.397 490.194 127.734 476.53 110.879 476.53C94.024 476.53 80.3604 490.194 80.3604 507.049C80.3604 523.903 94.024 537.567 110.879 537.567Z" stroke="#F3A13B" stroke-width="2.13" stroke-linecap="round" stroke-linejoin="round"/>
<path d="M110.88 532.375C124.867 532.375 136.206 521.036 136.206 507.049C136.206 493.061 124.867 481.722 110.88 481.722C96.892 481.722 85.5527 493.061 85.5527 507.049C85.5527 521.036 96.892 532.375 110.88 532.375Z" stroke="#F3A13B" stroke-width="2.13" stroke-linecap="round" stroke-linejoin="round"/>
<path d="M110.879 519.607C117.814 519.607 123.437 513.984 123.437 507.049C123.437 500.113 117.814 494.49 110.879 494.49C103.943 494.49 98.3203 500.113 98.3203 507.049C98.3203 513.984 103.943 519.607 110.879 519.607Z" stroke="#F3A13B" stroke-width="2.13" stroke-linecap="round" stroke-linejoin="round"/>
<path d="M47.3154 551.178H202.995" stroke="#F3A13B" stroke-width="2.13" stroke-linecap="round" stroke-linejoin="round"/>
<path d="M202.995 485.58H172.547V516.029H202.995V485.58Z" fill="#F3A13B"/>
<path d="M202.295 485.58V510.627" stroke="#1C2628" stroke-width="2.13" stroke-linecap="round" stroke-linejoin="round"/>
<path d="M239.408 567.174H340.014" stroke="#1C2628" stroke-width="2.13" stroke-linecap="round" stroke-linejoin="round"/>
<path d="M316.301 562.192H356.641" stroke="#1C2628" stroke-width="2.13" stroke-linecap="round" stroke-linejoin="round"/>
<path d="M357.482 583.24H458.369" stroke="#1C2628" stroke-width="2.13" stroke-linecap="round" stroke-linejoin="round"/>
<path d="M438.515 579.802H530" stroke="#1C2628" stroke-width="2.13" stroke-linecap="round" stroke-linejoin="round"/>
<path d="M341.417 554.896H250.212V558.404H341.417V554.896Z" fill="#1C2628" stroke="#1C2628" stroke-width="2.13" stroke-linecap="round" stroke-linejoin="round"/>
<path d="M472.61 568.927H380.704V572.435H472.61V568.927Z" fill="#1C2628" stroke="#1C2628" stroke-width="2.13" stroke-linecap="round" stroke-linejoin="round"/>
</svg>
