<svg width="589" height="533" viewBox="0 0 589 533" fill="none" xmlns="http://www.w3.org/2000/svg">
<path d="M521.704 483.489C471.868 506.099 380.826 469.575 314.334 459.006C247.842 448.771 206.635 464.825 192.654 446.697C178.674 428.569 191.986 376.392 168.774 332.978C145.561 289.564 85.2904 255.181 62.9479 198.121C40.2041 141.462 55.389 62.0596 102.95 24.7999C150.512 -12.1253 230.918 -7.37588 274.131 36.1049C317.745 79.1174 324.635 160.861 370.725 210.63C417.283 259.998 503.107 277.791 541.638 327.761C580.169 377.73 571.539 460.477 521.704 483.489Z" fill="#63A31F"/>
<path d="M42.7461 109.286C50.7064 95.3057 63.7507 91.6934 86.16 99.3862C81.6112 89.1515 95.1906 68.9496 116.864 90.3556C110.375 56.0392 161.817 52.0925 159.275 85.2716C172.118 69.2172 206.1 78.3816 192.922 97.5132C212.789 92.563 220.817 97.1787 233.861 109.353H42.7461V109.286Z" fill="#FAF6EB"/>
<path d="M195.397 157.985H117.065C114.122 147.884 115.928 136.445 147.903 145.676C157.937 127.013 177.47 145.61 195.397 157.985Z" fill="#FAF6EB"/>
<path d="M588.999 403.15H443.907C448.389 389.771 474.611 378.734 507.255 387.965C516.821 370.238 532.207 373.449 546.656 393.249C565.787 381.342 586.39 398.802 588.999 403.15Z" fill="#FAF6EB"/>
<path fill-rule="evenodd" clip-rule="evenodd" d="M437.285 412.515C424.642 416.528 431.064 427.766 427.853 439.607C427.251 441.814 426.382 443.821 425.512 445.828L424.776 447.433L426.783 449.975L423.371 450.577C423.371 450.577 423.037 451.313 422.903 451.714C421.9 454.457 421.164 457.333 421.431 460.678C422.167 471.247 432.134 478.472 443.172 476.599C447.654 475.863 450.597 474.391 452.671 472.986L452.202 467.501L456.216 468.638C456.216 468.638 458.49 463.019 457.821 457.467C456.885 449.908 452.604 441.145 450.664 434.991C448.323 427.432 450.329 408.367 437.285 412.515Z" fill="#FAF6EB"/>
<path fill-rule="evenodd" clip-rule="evenodd" d="M439.358 434.79L439.76 488.171L439.358 434.79Z" fill="#FAF6EB"/>
<path d="M439.358 434.79L439.76 488.171" stroke="#1C2628" stroke-width="2.13" stroke-linecap="round" stroke-linejoin="round"/>
<path d="M181.685 175.177C195.8 184.475 203.693 203.205 195.131 229.962C187.572 253.442 153.657 275.651 185.565 297.525C238.545 333.982 320.891 265.081 342.43 237.12C373.134 197.318 416.415 211.901 408.588 225.614C397.617 244.746 391.664 255.516 420.361 263.744C459.293 274.848 522.842 231.1 535.485 295.384C536.957 302.809 536.756 310.435 537.425 317.927" stroke="#1C2628" stroke-width="2.13" stroke-linecap="round" stroke-linejoin="round"/>
<path fill-rule="evenodd" clip-rule="evenodd" d="M247.843 225.146C234.999 232.772 221.888 240.063 209.245 248.09C179.478 266.954 196.469 301.472 188.977 312.308C170.113 339.735 133.321 347.628 118.939 378.667C108.905 400.34 126.766 421.947 143.422 433.519C146.633 435.794 150.245 438.871 154.125 438.469C161.684 437.667 167.771 431.178 175.263 430.108C188.575 428.168 202.355 431.847 215.667 429.64C243.829 424.823 270.787 414.455 298.816 409.103C321.56 404.755 344.972 404.554 367.783 400.608C374.205 399.471 381.831 388.968 383.971 384.754C387.583 377.596 390.527 369.97 392.4 362.144C397.751 340.404 403.237 309.365 391.731 288.427C380.827 268.694 352.464 283.477 342.096 266.286C330.791 247.555 312.128 222.872 285.838 223.808C278.815 224.076 271.858 225.748 264.901 226.751" fill="#FAF6EB"/>
<path fill-rule="evenodd" clip-rule="evenodd" d="M241.019 231.835C241.019 230.23 239.882 228.892 238.411 228.892C237.006 228.892 233.795 229.695 233.661 231.3C233.193 236.518 232.189 245.08 232.189 245.08C232.189 245.08 234.932 249.027 236.805 245.08C237.942 242.739 238.009 234.846 238.344 234.846C239.815 234.846 241.019 233.508 241.019 231.835Z" fill="#FAF6EB" stroke="#1C2628" stroke-width="2.13" stroke-linecap="round" stroke-linejoin="round"/>
<path fill-rule="evenodd" clip-rule="evenodd" d="M383.101 325.62L361.16 355.856L301.157 393.584L258.345 397.397L277.276 377.797L312.863 371.442L314.268 351.307L286.507 321.606L302.16 293.979L310.789 278.661C310.789 278.661 315.873 274.58 334.871 284.347C344.102 289.096 355.742 298.93 365.241 307.826C375.341 317.258 383.101 325.62 383.101 325.62Z" fill="#F3A140" stroke="#1C2628" stroke-width="2.13" stroke-linecap="round" stroke-linejoin="round"/>
<path fill-rule="evenodd" clip-rule="evenodd" d="M365.174 307.826C364.906 311.639 363.903 314.449 362.164 315.318C359.087 316.857 355.274 311.305 341.962 306.221C339.286 305.218 338.885 305.218 328.918 302.542C307.779 296.789 303.699 295.117 302.16 293.979L310.789 278.661C310.789 278.661 315.873 274.58 334.871 284.347C344.036 289.163 355.675 298.996 365.174 307.826Z" fill="#1C2628" stroke="#1C2628" stroke-width="2.13" stroke-linecap="round" stroke-linejoin="round"/>
<path fill-rule="evenodd" clip-rule="evenodd" d="M238.009 218.256C231.654 215.446 233.327 203.941 241.956 197.586C250.518 191.231 264.566 194.776 268.111 194.576C288.046 193.572 294.735 214.309 288.179 234.779C286.306 240.732 270.252 255.583 263.763 251.703C257.141 247.756 270.051 228.758 264.432 224.41" fill="#FAF6EB"/>
<path fill-rule="evenodd" clip-rule="evenodd" d="M270.52 241.803L272.995 262.272L280.22 271.436C280.22 271.436 273.33 280.868 261.356 279.464C249.315 278.126 245.636 270.567 245.636 270.567L244.699 243.943L270.52 241.803Z" fill="#63A31F" stroke="#1C2628" stroke-width="2.13" stroke-linecap="round" stroke-linejoin="round"/>
<path fill-rule="evenodd" clip-rule="evenodd" d="M279.818 234.846C279.015 240.933 277.678 246.151 273.597 249.964C268.848 254.445 260.887 256.92 254.198 256.051C243.963 254.713 236.939 248.759 235.802 239.261C235.535 237.254 235.601 235.113 235.869 232.772C236.739 226.083 235.936 212.637 237.943 210.63C240.685 208.356 253.997 205.279 253.997 205.279C253.997 205.279 265.57 209.627 268.045 209.961C274.065 211.232 281.557 221.534 279.818 234.846Z" fill="#F3A140" stroke="#1C2628" stroke-width="2.13" stroke-linecap="round" stroke-linejoin="round"/>
<path fill-rule="evenodd" clip-rule="evenodd" d="M249.983 225.28C247.776 227.956 241.822 232.906 242.826 234.645C244.097 236.919 249.181 234.31 249.649 233.775" fill="#F3A140"/>
<path d="M249.983 225.28C247.776 227.956 241.822 232.906 242.826 234.645C244.097 236.919 249.181 234.31 249.649 233.775" stroke="#1C2628" stroke-width="2.13" stroke-linecap="round" stroke-linejoin="round"/>
<path fill-rule="evenodd" clip-rule="evenodd" d="M273.462 265.884L274.265 246.485C274.265 246.485 258.813 242.07 255.067 247.488C251.321 252.907 258.144 267.958 258.144 267.958L269.449 268.092" fill="#49574E"/>
<path fill-rule="evenodd" clip-rule="evenodd" d="M277.276 225.012C276.54 225.146 279.751 222.002 283.497 226.35C286.106 229.427 283.363 238.123 277.343 235.113" fill="#F3A140"/>
<path d="M277.276 225.012C276.54 225.146 279.751 222.002 283.497 226.35C286.106 229.427 283.363 238.123 277.343 235.113" stroke="#1C2628" stroke-width="2.13" stroke-linecap="round" stroke-linejoin="round"/>
<path d="M280.754 228.758L280.621 229.293L280.219 230.163L279.483 230.966" stroke="#1C2628" stroke-width="2.13" stroke-linecap="round" stroke-linejoin="round"/>
<path fill-rule="evenodd" clip-rule="evenodd" d="M260.218 255.85L244.03 253.509L243.829 267.757C243.829 267.757 249.582 266.286 254.331 263.543C259.148 260.8 260.218 255.85 260.218 255.85Z" fill="#1C2628" stroke="#1C2628" stroke-width="2.13" stroke-linecap="round" stroke-linejoin="round"/>
<path fill-rule="evenodd" clip-rule="evenodd" d="M380.694 401.143C376.145 427.633 381.697 460.879 356.277 473.789C339.086 482.552 310.121 480.144 284.768 476.532C271.724 474.659 259.616 472.451 250.653 471.247C235.2 469.174 219.614 469.976 204.295 466.832C196.201 465.16 188.442 463.555 180.414 461.615C175.799 460.477 168.775 462.551 164.561 460.544C161.417 459.006 162.621 442.349 161.885 439.071C161.082 435.459 153.256 420.408 154.46 417.866C155.664 415.324 170.782 412.782 173.19 412.047C193.124 406.093 200.951 400.006 221.821 399.136C230.518 398.802 310.388 396.46 318.884 389.102C325.038 383.751 332.062 375.456 332.196 368.097C332.263 365.756 359.354 372.78 373.87 375.523C379.155 376.526 382.901 377.329 383.503 377.663C386.915 379.67 381.162 398.333 380.694 401.143Z" fill="#63A31F" stroke="#1C2628" stroke-width="2.13" stroke-linecap="round" stroke-linejoin="round"/>
<path fill-rule="evenodd" clip-rule="evenodd" d="M380.694 401.143C376.145 427.633 381.697 460.879 356.278 473.789C339.086 482.552 310.121 480.144 284.769 476.532C297.478 461.28 326.978 474.993 349.99 453.521C357.816 446.162 351.729 441.547 354.739 432.248C358.82 419.472 349.321 412.381 350.792 401.41C352.197 390.707 363.034 380.406 373.938 375.59C379.222 376.593 382.968 377.396 383.57 377.73C386.915 379.67 381.162 398.333 380.694 401.143Z" fill="#1C2628" stroke="#1C2628" stroke-width="2.13" stroke-linecap="round" stroke-linejoin="round"/>
<path fill-rule="evenodd" clip-rule="evenodd" d="M330.322 513.992C323.833 521.752 279.081 493.389 267.843 493.79C261.689 493.991 253.261 494.794 243.227 495.931C195.063 501.282 111.915 513.658 88.4349 501.684C75.9927 495.329 68.1662 488.974 64.0188 482.887C38.2648 445.092 149.308 413.652 149.308 413.652L163.356 444.022C163.356 444.022 242.022 439.674 270.118 443.62C283.831 445.56 300.086 450.711 300.086 450.845C300.354 457.133 336.811 506.166 330.322 513.992Z" fill="#F3A140" stroke="#1C2628" stroke-width="2.13" stroke-linecap="round" stroke-linejoin="round"/>
<path fill-rule="evenodd" clip-rule="evenodd" d="M243.227 495.931C195.064 501.282 111.915 513.658 88.4357 501.684C75.9935 495.329 68.1669 488.974 64.0195 482.887C70.7089 477.268 80.4753 474.458 88.3688 476.866C97.7339 479.743 96.5967 487.77 105.427 491.115C118.738 496.265 128.973 480.947 148.64 480.813C161.818 480.746 163.758 491.85 177.605 491.516C186.234 491.315 188.776 487.569 197.606 485.562C213.259 481.95 226.838 488.573 234.464 491.917C236.538 492.787 239.816 494.192 243.227 495.931Z" fill="#1C2628" stroke="#1C2628" stroke-width="2.13" stroke-linecap="round" stroke-linejoin="round"/>
<path fill-rule="evenodd" clip-rule="evenodd" d="M332.195 368.164C332.195 368.164 365.107 235.18 424.04 267.958C465.113 290.769 417.351 415.659 419.09 461.347C419.491 472.652 458.958 489.108 450.396 494.392C441.767 499.744 372.666 486.165 366.445 484.96C366.311 484.96 364.772 461.949 364.772 448.169C364.772 419.806 365.508 372.379 365.508 372.379L332.195 368.164Z" fill="#F3A140" stroke="#1C2628" stroke-width="2.13" stroke-linecap="round" stroke-linejoin="round"/>
<path fill-rule="evenodd" clip-rule="evenodd" d="M285.972 444.356L311.124 499.075L291.524 504.226C291.524 504.226 320.689 520.08 335.205 527.103C339.754 529.311 343.032 530.381 345.44 530.916L298.481 443.955L285.972 444.356Z" fill="#FAF6EB" stroke="#1C2628" stroke-width="2.13" stroke-linecap="round" stroke-linejoin="round"/>
<path fill-rule="evenodd" clip-rule="evenodd" d="M306.107 443.62L298.481 443.888L345.441 530.849C350.725 531.92 351.662 530.047 351.662 530.047L306.107 443.62Z" fill="#1C2628" stroke="#1C2628" stroke-width="2.13" stroke-linecap="round" stroke-linejoin="round"/>
<path fill-rule="evenodd" clip-rule="evenodd" d="M458.156 491.315C446.517 480.144 420.228 461.013 420.228 461.013L423.439 478.472L363.368 473.923L363.234 486.098L465.715 500.413C464.578 498.272 462.304 495.329 458.156 491.315Z" fill="#FAF6EB" stroke="#1C2628" stroke-width="2.13" stroke-linecap="round" stroke-linejoin="round"/>
<path fill-rule="evenodd" clip-rule="evenodd" d="M363.301 486.231L363.234 491.583L466.719 505.764C466.719 505.764 467.99 504.427 465.782 500.48L363.301 486.231Z" fill="#1C2628" stroke="#1C2628" stroke-width="2.13" stroke-linecap="round" stroke-linejoin="round"/>
<path fill-rule="evenodd" clip-rule="evenodd" d="M321.76 390.507C321.76 390.507 292.26 403.752 268.647 406.427C245.033 409.103 222.089 399.337 222.089 399.337L224.764 355.521L215.065 347.695L197.204 394.186C197.204 394.186 166.233 458.069 135.796 437.332C105.359 416.662 104.824 349.902 102.416 340.203C100.811 333.781 100.944 309.766 98.6701 290.167C97.466 280.266 97.8005 275.584 97.8005 275.584C97.8005 275.584 102.015 271.704 106.497 280.668L107.5 292.307L110.778 302.408C110.778 302.408 124.491 293.779 130.779 296.053C137.134 298.328 137.201 308.295 137.201 308.495C137.201 308.495 136.13 310.97 132.117 308.964C130.11 307.96 127.367 302.943 127.367 302.943L121.481 310.034L122.886 320.402L128.906 317.258C128.906 317.258 130.11 314.65 132.384 312.576C134.659 310.435 137.937 311.639 137.937 311.639L135.662 323.413L126.765 330.704L146.031 385.891C146.031 385.891 146.432 385.222 147.168 384.018C151.449 376.727 166.768 349.635 174.327 322.209C181.685 295.719 200.214 287.959 206.369 286.086C207.64 285.685 208.375 285.551 208.375 285.551L303.364 283.611L308.783 348.096L321.76 390.507Z" fill="#F3A140" stroke="#1C2628" stroke-width="2.13" stroke-linecap="round" stroke-linejoin="round"/>
<path fill-rule="evenodd" clip-rule="evenodd" d="M210.517 299.866C202.824 307.358 190.315 314.716 186.368 322.209C181.418 331.44 185.03 334.517 180.682 351.909C178.408 361.074 176.401 368.833 170.314 376.325C165.564 382.078 155.865 390.641 150.112 387.898C149.242 387.497 148.105 386.627 147.102 384.018C151.383 376.727 166.701 349.635 174.26 322.209C181.619 295.719 200.148 287.959 206.302 286.086C206.637 285.885 207.038 285.685 207.373 285.551L210.517 299.866Z" fill="#1C2628" stroke="#1C2628" stroke-width="2.13" stroke-linecap="round" stroke-linejoin="round"/>
<path d="M99.1393 336.925C56.3275 361.341 139.008 362.746 141.483 333.112" stroke="#1C2628" stroke-width="2.13" stroke-linecap="round" stroke-linejoin="round"/>
<path fill-rule="evenodd" clip-rule="evenodd" d="M316.141 343.681C314.669 344.952 312.796 345.822 310.455 346.29C303.699 347.762 268.446 351.374 244.699 353.782C244.498 353.782 244.23 353.849 244.03 353.849C231.588 355.12 222.49 355.99 222.49 355.99C222.49 355.99 220.885 355.722 218.878 354.317C215.734 352.177 211.586 347.294 210.984 336.524C210.516 328.497 212.724 310.101 212.724 310.101L210.516 299.933L207.372 285.618V285.484C207.372 285.484 224.363 281.939 233.059 276.386C241.822 270.834 242.29 263.342 242.29 263.342L275.537 260.6L276.54 260.533C276.54 260.533 280.152 265.416 286.039 269.028C286.975 269.563 287.912 270.098 288.915 270.567C290.521 271.303 292.26 271.905 294.133 272.239C295.337 272.507 296.608 272.707 297.879 272.975C306.709 274.714 316.743 276.721 316.743 276.721L308.181 298.528C308.181 298.528 315.405 310.368 317.479 317.192C321.492 330.503 321.292 339.333 316.141 343.681Z" fill="#63A31F" stroke="#1C2628" stroke-width="2.13" stroke-linecap="round" stroke-linejoin="round"/>
<path d="M366.914 355.455L365.041 377.931" stroke="#1C2628" stroke-width="2.13" stroke-linecap="round" stroke-linejoin="round"/>
<path d="M192.321 401.009C200.951 397.999 215.199 396.527 215.199 396.527C215.199 396.527 214.062 406.026 236.739 410.24C259.416 414.455 277.343 411.578 277.343 411.578" stroke="#1C2628" stroke-width="2.13" stroke-linecap="round" stroke-linejoin="round"/>
<path fill-rule="evenodd" clip-rule="evenodd" d="M248.445 187.418C248.445 181.933 253.195 177.451 259.081 177.451C264.968 177.451 269.717 181.933 269.717 187.418C269.717 192.903 264.968 197.385 259.081 197.385C253.195 197.318 248.445 192.903 248.445 187.418Z" fill="#FAF6EB"/>
<path fill-rule="evenodd" clip-rule="evenodd" d="M238.009 225.012C240.283 226.149 243.293 225.414 245.367 224.009L238.009 225.012Z" fill="#F3A140"/>
<path d="M238.009 225.012C240.283 226.149 243.293 225.414 245.367 224.009" stroke="#1C2628" stroke-width="2.13" stroke-linecap="round" stroke-linejoin="round"/>
<path fill-rule="evenodd" clip-rule="evenodd" d="M258.881 223.206C262.828 225.146 264.701 224.076 268.514 222.27L258.881 223.206Z" fill="#F3A140"/>
<path d="M258.881 223.206C262.828 225.146 264.701 224.076 268.514 222.27" stroke="#1C2628" stroke-width="2.13" stroke-linecap="round" stroke-linejoin="round"/>
<path d="M130.779 449.039C125.16 448.704 118.939 451.246 113.855 453.922C111.915 454.925 106.63 458.604 108.57 457.668C131.18 446.497 157.068 442.617 181.886 442.015" stroke="#1C2628" stroke-width="2.13" stroke-linecap="round" stroke-linejoin="round"/>
<path d="M116.196 489.509C117.802 500.48 136.131 494.459 142.218 492.787C154.459 489.309 166.567 484.76 179.143 482.352C197.673 478.739 216.336 481.081 234.397 485.696" stroke="#1C2628" stroke-width="2.13" stroke-linecap="round" stroke-linejoin="round"/>
<path d="M195.8 490.178C204.697 488.439 210.182 490.178 219.213 490.847" stroke="#1C2628" stroke-width="2.13" stroke-linecap="round" stroke-linejoin="round"/>
<path d="M424.643 299.465C420.562 307.358 410.863 321.406 417.82 330.905C423.907 339.266 429.994 323.881 427.921 323.011C425.847 322.142 425.713 326.958 424.977 329.099C422.971 334.651 420.964 340.27 419.693 346.023C416.816 359.334 414.81 392.514 413.873 404.554" stroke="#1C2628" stroke-width="2.13" stroke-linecap="round" stroke-linejoin="round"/>
<path d="M421.231 375.79C421.231 392.514 415.411 418.134 414.207 426.629" stroke="#1C2628" stroke-width="2.13" stroke-linecap="round" stroke-linejoin="round"/>
<path fill-rule="evenodd" clip-rule="evenodd" d="M102.884 315.987C103.687 310.435 107.366 305.552 111.647 302.341L102.884 315.987Z" fill="#F3A140"/>
<path d="M102.884 315.987C103.687 310.435 107.366 305.552 111.647 302.341" stroke="#1C2628" stroke-width="2.13" stroke-linecap="round" stroke-linejoin="round"/>
<path fill-rule="evenodd" clip-rule="evenodd" d="M252.66 191.632H265.102C266.774 191.632 268.112 192.97 268.112 194.643C268.112 196.315 266.774 197.653 265.102 197.653H252.66C250.987 197.653 249.649 196.315 249.649 194.643C249.649 192.97 250.987 191.632 252.66 191.632Z" fill="#63A31F" stroke="#1C2628" stroke-width="2.13" stroke-linecap="round" stroke-linejoin="round"/>
<path fill-rule="evenodd" clip-rule="evenodd" d="M265.234 363.08C267.576 364.285 304.3 386.359 304.3 386.359C310.99 391.042 306.24 395.256 301.558 402.012L298.012 407.23C293.33 413.92 284.901 406.762 278.212 402.012L249.983 384.152C245.367 379.336 262.893 361.943 265.234 363.08Z" fill="#1C2628" stroke="#1C2628" stroke-width="2.13" stroke-linecap="round" stroke-linejoin="round"/>
<path fill-rule="evenodd" clip-rule="evenodd" d="M321.426 335.387L329.052 359C322.028 369.435 304.235 374.987 304.235 374.987C304.235 374.987 285.839 375.322 280.889 379.804C275.671 384.553 299.084 381.944 296.943 383.416C292.662 386.359 286.04 391.109 286.04 391.109L273.798 394.052C273.798 394.052 259.817 390.975 256.339 390.44C252.86 389.905 249.649 393.249 249.649 393.249C249.649 393.249 269.182 402.548 275.337 402.079C302.562 399.939 311.727 395.992 311.727 395.992L325.038 390.707L332.531 369.703" fill="#F3A140"/>
<path d="M321.426 335.387L329.052 359C322.028 369.435 304.235 374.987 304.235 374.987C304.235 374.987 285.839 375.322 280.889 379.804C275.671 384.553 299.084 381.944 296.943 383.416C292.662 386.359 286.04 391.109 286.04 391.109L273.798 394.052C273.798 394.052 259.817 390.975 256.339 390.44C252.86 389.905 249.649 393.249 249.649 393.249C249.649 393.249 269.182 402.548 275.337 402.079C302.562 399.939 311.727 395.992 311.727 395.992L325.038 390.707L332.53 369.703" stroke="#FAF6EB" stroke-width="2.13" stroke-linecap="round" stroke-linejoin="round"/>
<path d="M332.263 368.432L317.747 409.973" stroke="#1C2628" stroke-width="2.13" stroke-linecap="round" stroke-linejoin="round"/>
<path d="M291.524 428.837C293.063 434.991 300.689 440.142 304.569 445.36" stroke="#1C2628" stroke-width="2.13" stroke-linecap="round" stroke-linejoin="round"/>
<path fill-rule="evenodd" clip-rule="evenodd" d="M278.012 228.758C278.012 227.153 279.149 225.815 280.621 225.815C282.025 225.815 285.236 226.618 285.37 228.223C285.838 233.441 286.842 242.003 286.842 242.003C286.842 242.003 284.099 245.95 282.226 242.003C281.089 239.662 281.022 231.768 280.621 231.768C279.216 231.702 278.012 230.364 278.012 228.758Z" fill="#FAF6EB" stroke="#1C2628" stroke-width="2.13" stroke-linecap="round" stroke-linejoin="round"/>
<path d="M4.08277 353.648C0.604304 370.506 0.738087 390.574 10.3039 404.822C19.9365 419.204 38.1985 430.576 55.5908 430.442C85.4922 430.308 111.447 402.615 141.281 404.153C155.931 404.889 161.349 425.626 171.383 436.329" stroke="#1C2628" stroke-width="2.13" stroke-linecap="round" stroke-linejoin="round"/>
<path d="M421.231 244.01C437.286 270.834 515.016 214.175 545.653 268.761" stroke="#1C2628" stroke-width="2.13" stroke-linecap="round" stroke-linejoin="round"/>
<path d="M455.347 277.055C485.382 277.189 516.889 260.733 523.377 307.224" stroke="#1C2628" stroke-width="2.13" stroke-linecap="round" stroke-linejoin="round"/>
<path d="M170.982 180.796C179.411 188.488 184.428 196.516 186.836 211.901" stroke="#1C2628" stroke-width="2.13" stroke-linecap="round" stroke-linejoin="round"/>
<path d="M171.785 197.318C186.434 222.604 172.788 238.056 164.359 256.051" stroke="#1C2628" stroke-width="2.13" stroke-linecap="round" stroke-linejoin="round"/>
<path d="M17.3945 398.266C28.6326 417.532 53.2495 423.151 71.779 420.141" stroke="#1C2628" stroke-width="2.13" stroke-linecap="round" stroke-linejoin="round"/>
<path d="M18.7324 428.837C41.2086 450.51 70.3742 440.008 85.8935 435.325" stroke="#1C2628" stroke-width="2.13" stroke-linecap="round" stroke-linejoin="round"/>
<path d="M365.308 467.167C365.308 467.167 360.09 472.518 354.805 474.458C349.588 476.465 338.751 479.007 334.604 479.275" stroke="#1C2628" stroke-width="2.13" stroke-linecap="round" stroke-linejoin="round"/>
<path fill-rule="evenodd" clip-rule="evenodd" d="M319.018 358.264C310.322 365.087 304.234 365.756 300.154 365.02C295.873 364.218 294.669 362.077 287.912 359.535C285.973 358.799 279.551 356.525 272.126 356.324C258.881 355.99 252.593 362.478 247.709 358.866C246.572 358.063 245.368 356.592 244.699 353.715C268.446 351.374 303.699 347.695 310.456 346.223C312.797 345.755 314.67 344.885 316.142 343.614C318.215 348.899 318.817 354.384 319.018 358.264Z" fill="#1C2628" stroke="#1C2628" stroke-width="2.13" stroke-linecap="round" stroke-linejoin="round"/>
<path fill-rule="evenodd" clip-rule="evenodd" d="M315.272 369.368L308.649 346.625C308.649 346.625 315.473 345.354 317.145 343.681C318.817 342.009 320.757 335.721 320.757 335.721L328.584 358.933C328.584 358.933 326.443 362.88 322.296 365.221C318.081 367.629 315.272 369.368 315.272 369.368Z" fill="#1C2628"/>
<path fill-rule="evenodd" clip-rule="evenodd" d="M345.107 444.824C346.846 445.761 342.966 452.852 338.016 455.594C334.404 457.601 330.591 457.133 331.193 454.725C331.594 453.119 333.802 451.179 334.939 450.176C338.351 447.166 343.702 444.088 345.107 444.824Z" fill="#1C2628" stroke="#1C2628" stroke-width="2.13" stroke-linecap="round" stroke-linejoin="round"/>
<path fill-rule="evenodd" clip-rule="evenodd" d="M346.176 427.566C344.771 426.562 345.909 421.746 347.782 421.278C348.451 421.144 349.186 421.612 349.521 421.813C350.457 422.415 351.126 423.552 351.059 424.622C350.859 426.964 347.313 428.435 346.176 427.566Z" fill="#1C2628" stroke="#1C2628" stroke-width="2.13" stroke-linecap="round" stroke-linejoin="round"/>
<path d="M130.109 109.286H233.861" stroke="#1C2628" stroke-width="2.13" stroke-linecap="round" stroke-linejoin="round"/>
<path d="M176.334 118.25H249.649" stroke="#1C2628" stroke-width="2.13" stroke-linecap="round" stroke-linejoin="round"/>
<path d="M107.3 157.985H167.838" stroke="#1C2628" stroke-width="2.13" stroke-linecap="round" stroke-linejoin="round"/>
<path d="M130.109 164.005H184.226" stroke="#1C2628" stroke-width="2.13" stroke-linecap="round" stroke-linejoin="round"/>
<path d="M53.8509 403.618L54.1854 403.551L53.4495 424.489C52.1786 423.686 50.2387 423.552 48.3656 424.288C45.623 425.425 44.0845 427.967 44.9541 429.974C45.7568 432.048 48.6332 432.783 51.3759 431.713C54.1185 430.643 55.657 428.101 54.7874 426.027C54.7874 425.96 54.7205 425.893 54.6536 425.827L55.3895 403.283L76.394 398.668L75.6582 419.338C74.3872 418.468 72.3804 418.334 70.5074 419.07C67.7648 420.141 66.2262 422.683 67.0289 424.756C67.8317 426.83 70.7081 427.566 73.4507 426.495C76.1934 425.425 77.7319 422.883 76.8623 420.81L76.7954 420.743L77.5312 398.4L96.3952 394.253L95.7263 413.518C94.4553 412.715 92.5154 412.515 90.5755 413.317C87.8328 414.388 86.2943 416.93 87.1639 419.003C87.9666 421.077 90.843 421.813 93.5857 420.743C96.3283 419.672 97.8668 417.13 96.9972 415.057C96.9972 414.99 96.9303 414.99 96.9303 414.923L97.6662 394.052L98.0675 393.985L98.3351 387.162L53.8509 397.865V403.618Z" fill="#1C2628" stroke="#1C2628" stroke-width="2.13" stroke-linecap="round" stroke-linejoin="round"/>
<path d="M30.3048 390.306C24.4851 392.647 19.8025 392.982 16.3241 391.376C15.722 391.109 15.1869 390.707 14.7186 390.373C16.8592 390.641 19.0667 389.771 20.4046 387.898C22.3445 385.155 21.7424 381.342 18.9998 379.402C16.2572 377.463 12.4442 378.065 10.5043 380.807C8.63131 383.416 9.16646 386.895 11.5077 388.968C12.4442 390.373 13.849 391.778 15.722 392.647C19.0667 394.253 23.4148 394.119 28.6325 392.38L6.15625 423.753L7.29344 424.556L31.0406 391.376C31.2413 391.109 31.2413 390.774 31.0406 390.574C30.9069 390.306 30.5724 390.172 30.3048 390.306Z" fill="#1C2628" stroke="#1C2628" stroke-width="2.13" stroke-linecap="round" stroke-linejoin="round"/>
<path d="M465.447 263.476C465.447 263.476 445.78 274.513 461.166 285.752C455.748 274.38 471.066 263.944 471.066 263.944C462.905 255.315 471.468 254.847 476.284 247.355C483.977 235.448 472.136 233.842 472.136 233.842C478.224 242.137 464.444 244.478 460.631 251.77C457.152 258.459 461.233 261.536 465.447 263.476Z" fill="#1C2628" stroke="#1C2628" stroke-width="2.13" stroke-linecap="round" stroke-linejoin="round"/>
<path fill-rule="evenodd" clip-rule="evenodd" d="M227.642 291.438C226.906 291.906 226.772 293.712 227.04 295.384C226.036 294.581 224.966 293.913 224.23 293.846C222.156 293.712 222.758 295.652 224.096 297.458C223.093 297.324 222.223 297.391 221.621 297.659C219.548 298.595 221.554 300.267 223.963 301.204C222.758 301.672 221.688 302.341 221.287 303.01C220.083 304.95 222.625 305.218 225.167 304.682C224.431 305.753 223.896 306.823 223.896 307.626C223.963 309.9 226.237 308.763 228.043 306.89C227.976 308.161 228.177 309.365 228.578 310.034C229.849 311.907 231.187 309.699 231.655 307.157C232.324 308.228 233.127 309.231 233.863 309.499C236.003 310.368 235.803 307.76 234.866 305.418C236.003 305.953 237.207 306.355 238.01 306.221C240.285 305.82 238.746 303.679 236.605 302.274C237.876 302.14 239.08 301.739 239.616 301.204C241.288 299.599 238.813 298.729 236.271 298.662C237.274 297.859 238.01 296.856 238.211 296.12C238.746 293.846 236.204 294.448 233.997 295.786C234.331 294.582 234.532 293.31 234.264 292.575C233.461 290.434 231.655 292.307 230.585 294.581C230.251 293.377 229.648 292.24 229.046 291.772C228.444 291.237 227.976 291.17 227.642 291.438ZM229.515 299.465C229.849 299.532 230.184 299.398 230.384 299.197C230.652 299.465 230.986 299.532 231.254 299.465C231.388 299.799 231.588 300.067 231.789 300.201C231.655 300.535 231.722 300.869 231.856 301.137C231.588 301.405 231.455 301.672 231.455 301.94C231.053 302.007 230.786 302.14 230.652 302.408C230.317 302.274 229.983 302.207 229.715 302.341C229.515 302.007 229.247 301.873 228.98 301.806C228.98 301.405 228.913 301.137 228.645 300.936C228.846 300.669 228.913 300.401 228.846 300.134C229.247 299.933 229.381 299.732 229.515 299.465Z" fill="#FAF6EB" stroke="#1C2628" stroke-width="2.13" stroke-linecap="round" stroke-linejoin="round"/>
<path fill-rule="evenodd" clip-rule="evenodd" d="M272.727 305.886C271.59 306.689 271.389 309.365 271.791 312.108C270.252 310.837 268.58 309.833 267.376 309.766C264.165 309.566 265.101 312.576 267.175 315.385C265.636 315.185 264.232 315.252 263.362 315.653C260.084 317.125 263.228 319.733 266.974 321.138C265.101 321.874 263.429 322.877 262.827 323.948C260.887 326.958 264.967 327.426 268.847 326.557C267.71 328.162 266.84 329.901 266.84 331.172C266.907 334.784 270.52 332.911 273.329 330.035C273.262 332.042 273.463 333.915 274.199 334.985C276.206 337.928 278.212 334.45 279.015 330.503C280.018 332.243 281.289 333.714 282.427 334.182C285.704 335.587 285.504 331.507 283.965 327.828C285.771 328.697 287.644 329.232 288.848 329.032C292.394 328.363 289.919 325.085 286.641 322.811C288.648 322.543 290.454 322.008 291.39 321.138C293.999 318.663 290.186 317.258 286.173 317.125C287.711 315.854 288.915 314.382 289.25 313.178C290.052 309.699 286.106 310.569 282.694 312.71C283.296 310.77 283.497 308.897 283.096 307.693C281.891 304.348 279.015 307.224 277.343 310.837C276.741 308.897 275.938 307.224 274.935 306.422C273.931 305.552 273.195 305.485 272.727 305.886ZM275.537 318.462C276.139 318.529 276.607 318.396 276.941 318.128C277.41 318.529 277.811 318.663 278.279 318.596C278.48 319.131 278.747 319.533 279.149 319.733C279.015 320.269 279.082 320.737 279.283 321.138C278.814 321.54 278.614 321.941 278.614 322.409C278.012 322.476 277.61 322.744 277.343 323.078C276.808 322.811 276.339 322.811 275.938 322.944C275.603 322.476 275.269 322.142 274.801 322.075C274.801 321.473 274.667 321.004 274.333 320.737C274.6 320.335 274.734 319.867 274.667 319.466C275.135 319.198 275.403 318.864 275.537 318.462Z" fill="#FAF6EB" stroke="#1C2628" stroke-width="2.13" stroke-linecap="round" stroke-linejoin="round"/>
<path fill-rule="evenodd" clip-rule="evenodd" d="M241.019 348.698C242.557 347.427 243.761 345.956 244.029 344.752C244.832 341.273 240.885 342.143 237.473 344.283C238.076 342.343 238.276 340.47 237.875 339.266C236.671 335.922 233.794 338.798 232.122 342.41C231.52 340.47 230.717 338.731 229.714 337.995C228.777 337.326 228.108 337.26 227.573 337.594C226.436 338.397 226.235 341.072 226.637 343.815C225.098 342.544 223.426 341.541 222.222 341.474C219.011 341.273 219.947 344.283 222.021 347.093C220.483 346.892 219.078 346.959 218.141 347.36C214.863 348.899 218.007 351.441 221.754 352.846C220.683 353.247 219.68 353.782 218.877 354.317C220.884 355.722 222.489 355.99 222.489 355.99C222.489 355.99 231.587 355.12 244.029 353.849C244.966 353.582 245.701 353.18 246.17 352.712C248.778 350.237 245.032 348.832 241.019 348.698ZM233.527 354.117C232.925 354.184 232.523 354.451 232.256 354.786C231.721 354.518 231.252 354.518 230.851 354.652C230.517 354.117 230.182 353.849 229.714 353.782C229.714 353.18 229.58 352.779 229.246 352.444C229.513 352.043 229.647 351.575 229.58 351.173C230.048 350.906 230.316 350.571 230.45 350.17C231.052 350.237 231.52 350.103 231.854 349.769C232.323 350.17 232.791 350.304 233.192 350.237C233.393 350.772 233.661 351.173 234.062 351.374C233.928 351.909 233.995 352.377 234.196 352.779C233.794 353.247 233.594 353.648 233.527 354.117Z" fill="#FAF6EB" stroke="#1C2628" stroke-width="2.13" stroke-linecap="round" stroke-linejoin="round"/>
<path fill-rule="evenodd" clip-rule="evenodd" d="M296.408 273.176C296.943 273.109 297.411 273.042 297.946 272.908C296.675 272.64 295.404 272.373 294.2 272.172C292.327 271.771 290.588 271.236 288.982 270.5C288.915 270.901 288.982 271.303 289.183 271.637C288.715 272.038 288.514 272.44 288.514 272.908C287.912 272.975 287.511 273.242 287.243 273.577C286.708 273.309 286.24 273.309 285.838 273.443C285.504 272.908 285.169 272.64 284.701 272.574C284.701 271.971 284.567 271.57 284.233 271.236C284.5 270.834 284.634 270.366 284.567 269.965C285.036 269.697 285.303 269.363 285.437 268.961C285.705 268.961 285.905 268.961 286.106 268.961C280.152 265.416 276.607 260.466 276.607 260.466L275.604 260.533C274.466 261.335 275.336 263.677 277.008 265.817C275.47 265.617 274.065 265.683 273.129 266.085C269.851 267.556 272.995 270.165 276.741 271.57C274.868 272.306 273.195 273.309 272.593 274.313C270.654 277.39 274.734 277.791 278.614 276.922C277.477 278.527 276.607 280.266 276.607 281.537C276.674 285.149 280.286 283.276 283.096 280.4C283.029 282.407 283.229 284.28 283.965 285.35C285.972 288.293 287.979 284.815 288.782 280.868C289.785 282.608 291.056 284.079 292.193 284.547C295.538 285.952 295.27 281.872 293.732 278.193C295.538 279.062 297.411 279.597 298.615 279.397C302.093 278.728 299.685 275.45 296.408 273.176Z" fill="#FAF6EB" stroke="#1C2628" stroke-width="2.13" stroke-linecap="round" stroke-linejoin="round"/>
<path d="M267.979 345.22C267.31 346.156 267.51 347.494 268.246 348.431C268.915 349.367 269.986 349.902 271.056 350.371C272.929 351.173 275.003 351.709 277.009 351.842" stroke="#1C2628" stroke-width="2.13" stroke-linecap="round" stroke-linejoin="round"/>
<path d="M301.692 291.839C301.893 294.849 303.699 297.725 306.375 299.13" stroke="#1C2628" stroke-width="2.13" stroke-linecap="round" stroke-linejoin="round"/>
<path d="M305.17 289.498C304.769 291.839 306.642 297.123 308.181 298.863" stroke="#1C2628" stroke-width="2.13" stroke-linecap="round" stroke-linejoin="round"/>
<path d="M216.067 306.756C216.067 308.763 214.395 310.569 212.455 310.837" stroke="#1C2628" stroke-width="2.13" stroke-linecap="round" stroke-linejoin="round"/>
<path d="M237.207 271.236C238.812 273.042 241.02 274.179 243.361 274.447C248.111 274.982 252.593 272.105 257.342 272.172C261.69 272.239 265.771 274.714 270.119 274.313" stroke="#1C2628" stroke-width="2.13" stroke-linecap="round" stroke-linejoin="round"/>
<path d="M240.685 266.286C240.418 267.155 241.354 267.891 242.224 268.225C248.579 270.701 255.736 266.419 262.426 267.557" stroke="#1C2628" stroke-width="2.13" stroke-linecap="round" stroke-linejoin="round"/>
<path fill-rule="evenodd" clip-rule="evenodd" d="M139.542 249.161C132.853 246.552 128.839 237.99 131.314 233.307C134.324 227.487 147.703 226.551 152.72 233.307C155.262 236.719 156.065 242.672 152.72 246.686C149.242 250.9 143.154 250.566 139.542 249.161Z" fill="#FAF6EB"/>
<path fill-rule="evenodd" clip-rule="evenodd" d="M446.383 369.168C443.172 365.556 445.112 355.521 451.801 351.909C460.564 347.227 471.735 356.391 471.401 361.408C471.066 367.897 451.333 374.72 446.383 369.168Z" fill="#1C2628" stroke="#1C2628" stroke-width="2.13" stroke-linecap="round" stroke-linejoin="round"/>
<path fill-rule="evenodd" clip-rule="evenodd" d="M469.06 480.345C466.317 478.806 465.916 473.789 467.856 472.05C470.398 469.776 477.154 472.719 477.355 475.595C477.555 478.271 472.338 482.151 469.06 480.345Z" fill="#1C2628" stroke="#1C2628" stroke-width="2.13" stroke-linecap="round" stroke-linejoin="round"/>
<path d="M83.6857 267.356L59.6709 253.509L83.6857 239.595V267.356Z" fill="#1C2628" stroke="#1C2628" stroke-width="2.13" stroke-linecap="round" stroke-linejoin="round"/>
<path d="M315.539 207.687L361.094 181.398L315.539 155.109V207.687Z" fill="#1C2628" stroke="#1C2628" stroke-width="2.13" stroke-linecap="round" stroke-linejoin="round"/>
<path d="M264.366 239.327C266.767 239.327 268.714 237.83 268.714 235.983C268.714 234.136 266.767 232.638 264.366 232.638C261.964 232.638 260.018 234.136 260.018 235.983C260.018 237.83 261.964 239.327 264.366 239.327Z" fill="#FAF6EB"/>
<path d="M236.939 232.638C239.348 232.638 241.288 234.11 241.288 235.983C241.288 237.856 239.348 239.327 236.939 239.327" fill="#FAF6EB"/>
<path d="M258.01 203.205C258.01 203.205 254.665 207.887 260.017 210.563C265.368 213.239 268.913 211.901 270.72 215.246C275.402 223.942 282.76 219.928 282.76 219.928" stroke="#FAF6EB" stroke-width="2.13" stroke-linecap="round" stroke-linejoin="round"/>
</svg>
